0
SECTION
2
ENTITIES
0
3DFACE
8
0
10
NaN
20
NaN
30
NaN
11
NaN
21
NaN
31
NaN
12
NaN
22
NaN
32
NaN
13
NaN
23
NaN
33
NaN
0
3DFACE
8
0
10
NaN
20
NaN
30
NaN
11
NaN
21
NaN
31
NaN
12
NaN
22
NaN
32
NaN
13
NaN
23
NaN
33
NaN
0
3DFACE
8
0
10
NaN
20
NaN
30
NaN
11
NaN
21
NaN
31
NaN
12
NaN
22
NaN
32
NaN
13
NaN
23
NaN
33
NaN
0
3DFACE
8
0
10
NaN
20
NaN
30
NaN
11
NaN
21
NaN
31
NaN
12
NaN
22
NaN
32
NaN
13
NaN
23
NaN
33
NaN
0
3DFACE
8
0
10
NaN
20
NaN
30
NaN
11
NaN
21
NaN
31
NaN
12
NaN
22
NaN
32
NaN
13
NaN
23
NaN
33
NaN
0
3DFACE
8
0
10
NaN
20
NaN
30
NaN
11
NaN
21
NaN
31
NaN
12
NaN
22
NaN
32
NaN
13
NaN
23
NaN
33
NaN
0
3DFACE
8
0
10
NaN
20
NaN
30
NaN
11
NaN
21
NaN
31
NaN
12
NaN
22
NaN
32
NaN
13
NaN
23
NaN
33
NaN
0
3DFACE
8
0
10
NaN
20
NaN
30
NaN
11
NaN
21
NaN
31
NaN
12
NaN
22
NaN
32
NaN
13
NaN
23
NaN
33
NaN
0
3DFACE
8
0
10
NaN
20
NaN
30
NaN
11
NaN
21
NaN
31
NaN
12
NaN
22
NaN
32
NaN
13
NaN
23
NaN
33
NaN
0
3DFACE
8
0
10
NaN
20
NaN
30
NaN
11
NaN
21
NaN
31
NaN
12
NaN
22
NaN
32
NaN
13
NaN
23
NaN
33
NaN
0
3DFACE
8
0
10
NaN
20
NaN
30
NaN
11
NaN
21
NaN
31
NaN
12
NaN
22
NaN
32
NaN
13
NaN
23
NaN
33
NaN
0
3DFACE
8
0
10
NaN
20
NaN
30
NaN
11
NaN
21
NaN
31
NaN
12
NaN
22
NaN
32
NaN
13
NaN
23
NaN
33
NaN
0
3DFACE
8
0
10
-46.970627
20
-164.74776
30
-616.71545
11
32.29115
21
-223.92944
31
-725.0468
12
32.29115
22
-95.18901
32
-795.37805
13
32.29125
23
-95.18891
33
-795.3779
0
3DFACE
8
0
10
32.29115
20
-95.18901
30
-795.37805
11
-46.970627
21
-36.007324
31
-687.0467
12
-46.970627
22
-164.74776
32
-616.71545
13
-46.970528
23
-164.74765
33
-616.71533
0
3DFACE
8
0
10
155.73405
20
-185.92932
30
-655.4881
11
76.472275
21
-126.747635
31
-547.15674
12
76.472275
22
1.9927979
32
-617.488
13
76.472374
23
1.9928979
33
-617.48785
0
3DFACE
8
0
10
76.472275
20
1.9927979
30
-617.488
11
155.73405
21
-57.18889
31
-725.81934
12
155.73405
22
-185.92932
32
-655.4881
13
155.73416
23
-185.92921
33
-655.488
0
3DFACE
8
0
10
32.29115
20
-223.92944
30
-725.0468
11
155.73405
21
-185.92932
31
-655.4881
12
155.73405
22
-57.18889
32
-725.81934
13
155.73416
23
-57.18879
33
-725.8192
0
3DFACE
8
0
10
155.73405
20
-57.18889
30
-725.81934
11
32.29115
21
-95.18901
31
-795.37805
12
32.29115
22
-223.92944
32
-725.0468
13
32.29125
23
-223.92934
33
-725.0467
0
3DFACE
8
0
10
76.472275
20
-126.747635
30
-547.15674
11
-46.970627
21
-164.74776
31
-616.71545
12
-46.970627
22
-36.007324
32
-687.0467
13
-46.970528
23
-36.007225
33
-687.0466
0
3DFACE
8
0
10
-46.970627
20
-36.007324
30
-687.0467
11
76.472275
21
1.9927979
31
-617.488
12
76.472275
22
-126.747635
32
-547.15674
13
76.472374
23
-126.747536
33
-547.1566
0
3DFACE
8
0
10
76.472275
20
-126.747635
30
-547.15674
11
155.73405
21
-185.92932
31
-655.4881
12
32.29115
22
-223.92944
32
-725.0468
13
32.29125
23
-223.92934
33
-725.0467
0
3DFACE
8
0
10
32.29115
20
-223.92944
30
-725.0468
11
-46.970627
21
-164.74776
31
-616.71545
12
76.472275
22
-126.747635
32
-547.15674
13
76.472374
23
-126.747536
33
-547.1566
0
3DFACE
8
0
10
-46.970627
20
-36.007324
30
-687.0467
11
32.29115
21
-95.18901
31
-795.37805
12
155.73405
22
-57.18889
32
-725.81934
13
155.73416
23
-57.18879
33
-725.8192
0
3DFACE
8
0
10
155.73405
20
-57.18889
30
-725.81934
11
76.472275
21
1.9927979
31
-617.488
12
-46.970627
22
-36.007324
32
-687.0467
13
-46.970528
23
-36.007225
33
-687.0466
0
3DFACE
8
0
10
-118.51121
20
-19.586624
30
-456.64856
11
-43.489258
21
-75.60259
31
-559.1851
12
-43.489258
22
46.251328
32
-625.7542
13
-43.48916
23
46.251427
33
-625.7541
0
3DFACE
8
0
10
-43.489258
20
46.251328
30
-625.7542
11
-118.51121
21
102.267296
31
-523.21765
12
-118.51121
22
-19.586624
32
-456.64856
13
-118.51111
23
-19.586525
33
-456.64847
0
3DFACE
8
0
10
73.3505
20
-39.635155
30
-493.34714
11
-1.6714478
21
16.380814
31
-390.8106
12
-1.6714478
22
138.23474
32
-457.37973
13
-1.6713477
23
138.23485
33
-457.37964
0
3DFACE
8
0
10
-1.6714478
20
138.23474
30
-457.37973
11
73.3505
21
82.218765
31
-559.91626
12
73.3505
22
-39.635155
32
-493.34714
13
73.3506
23
-39.635056
33
-493.34705
0
3DFACE
8
0
10
-43.489258
20
-75.60259
30
-559.1851
11
73.3505
21
-39.635155
31
-493.34714
12
73.3505
22
82.218765
32
-559.91626
13
73.3506
23
82.218864
33
-559.91614
0
3DFACE
8
0
10
73.3505
20
82.218765
30
-559.91626
11
-43.489258
21
46.251328
31
-625.7542
12
-43.489258
22
-75.60259
32
-559.1851
13
-43.48916
23
-75.60249
33
-559.185
0
3DFACE
8
0
10
-1.6714478
20
16.380814
30
-390.8106
11
-118.51121
21
-19.586624
31
-456.64856
12
-118.51121
22
102.267296
32
-523.21765
13
-118.51111
23
102.267395
33
-523.2175
0
3DFACE
8
0
10
-118.51121
20
102.267296
30
-523.21765
11
-1.6714478
21
138.23474
31
-457.37973
12
-1.6714478
22
16.380814
32
-390.8106
13
-1.6713477
23
16.380913
33
-390.81052
0
3DFACE
8
0
10
-1.6714478
20
16.380814
30
-390.8106
11
73.3505
21
-39.635155
31
-493.34714
12
-43.489258
22
-75.60259
32
-559.1851
13
-43.48916
23
-75.60249
33
-559.185
0
3DFACE
8
0
10
-43.489258
20
-75.60259
30
-559.1851
11
-118.51121
21
-19.586624
31
-456.64856
12
-1.6714478
22
16.380814
32
-390.8106
13
-1.6713477
23
16.380913
33
-390.81052
0
3DFACE
8
0
10
-118.51121
20
102.267296
30
-523.21765
11
-43.489258
21
46.251328
31
-625.7542
12
73.3505
22
82.218765
32
-559.91626
13
73.3506
23
82.218864
33
-559.91614
0
3DFACE
8
0
10
73.3505
20
82.218765
30
-559.91626
11
-1.6714478
21
138.23474
31
-457.37973
12
-118.51121
22
102.267296
32
-523.21765
13
-118.51111
23
102.267395
33
-523.2175
0
3DFACE
8
0
10
107.31292
20
-104.04587
30
-756.07086
11
150.8004
21
-136.51627
31
-815.5075
12
150.8004
22
-65.882
32
-854.0952
13
150.8005
23
-65.881905
33
-854.0951
0
3DFACE
8
0
10
150.8004
20
-65.882
30
-854.0952
11
107.31292
21
-33.4116
31
-794.6585
12
107.31292
22
-104.04587
32
-756.07086
13
107.31302
23
-104.04577
33
-756.07074
0
3DFACE
8
0
10
218.52814
20
-115.66726
30
-777.3437
11
175.04066
21
-83.19685
31
-717.907
12
175.04066
22
-12.562584
32
-756.4947
13
175.04077
23
-12.562484
33
-756.49457
0
3DFACE
8
0
10
175.04066
20
-12.562584
30
-756.4947
11
218.52814
21
-45.032993
31
-815.93134
12
218.52814
22
-115.66726
32
-777.3437
13
218.52824
23
-115.66716
33
-777.34357
0
3DFACE
8
0
10
150.8004
20
-136.51627
30
-815.5075
11
218.52814
21
-115.66726
31
-777.3437
12
218.52814
22
-45.032993
32
-815.93134
13
218.52824
23
-45.032894
33
-815.9312
0
3DFACE
8
0
10
218.52814
20
-45.032993
30
-815.93134
11
150.8004
21
-65.882
31
-854.0952
12
150.8004
22
-136.51627
32
-815.5075
13
150.8005
23
-136.51616
33
-815.5074
0
3DFACE
8
0
10
175.04066
20
-83.19685
30
-717.907
11
107.31292
21
-104.04587
31
-756.07086
12
107.31292
22
-33.4116
32
-794.6585
13
107.31302
23
-33.4115
33
-794.6584
0
3DFACE
8
0
10
107.31292
20
-33.4116
30
-794.6585
11
175.04066
21
-12.562584
31
-756.4947
12
175.04066
22
-83.19685
32
-717.907
13
175.04077
23
-83.196754
33
-717.90686
0
3DFACE
8
0
10
175.04066
20
-83.19685
30
-717.907
11
218.52814
21
-115.66726
31
-777.3437
12
150.8004
22
-136.51627
32
-815.5075
13
150.8005
23
-136.51616
33
-815.5074
0
3DFACE
8
0
10
150.8004
20
-136.51627
30
-815.5075
11
107.31292
21
-104.04587
31
-756.07086
12
175.04066
22
-83.19685
32
-717.907
13
175.04077
23
-83.196754
33
-717.90686
0
3DFACE
8
0
10
107.31292
20
-33.4116
30
-794.6585
11
150.8004
21
-65.882
31
-854.0952
12
218.52814
22
-45.032993
32
-815.93134
13
218.52824
23
-45.032894
33
-815.9312
0
3DFACE
8
0
10
218.52814
20
-45.032993
30
-815.93134
11
175.04066
21
-12.562584
31
-756.4947
12
107.31292
22
-33.4116
32
-794.6585
13
107.31302
23
-33.4115
33
-794.6584
0
3DFACE
8
0
10
-192.37189
20
28.537773
30
-696.0631
11
-154.75813
21
0.45303345
31
-747.4719
12
-154.75813
22
61.54696
32
-780.84766
13
-154.75803
23
61.54706
33
-780.84753
0
3DFACE
8
0
10
-154.75813
20
61.54696
30
-780.84766
11
-192.37189
21
89.6317
31
-729.4389
12
-192.37189
22
28.537773
32
-696.0631
13
-192.37178
23
28.537872
33
-696.063
0
3DFACE
8
0
10
-96.178154
20
18.486038
30
-714.4627
11
-133.79192
21
46.570778
31
-663.05396
12
-133.79192
22
107.6647
32
-696.4297
13
-133.79181
23
107.6648
33
-696.42957
0
3DFACE
8
0
10
-133.79192
20
107.6647
30
-696.4297
11
-96.178154
21
79.57996
31
-747.8385
12
-96.178154
22
18.486038
32
-714.4627
13
-96.178055
23
18.486137
33
-714.4626
0
3DFACE
8
0
10
-154.75813
20
0.45303345
30
-747.4719
11
-96.178154
21
18.486038
31
-714.4627
12
-96.178154
22
79.57996
32
-747.8385
13
-96.178055
23
79.58006
33
-747.8384
0
3DFACE
8
0
10
-96.178154
20
79.57996
30
-747.8385
11
-154.75813
21
61.54696
31
-780.84766
12
-154.75813
22
0.45303345
32
-747.4719
13
-154.75803
23
0.45313343
33
-747.4718
0
3DFACE
8
0
10
-133.79192
20
46.570778
30
-663.05396
11
-192.37189
21
28.537773
31
-696.0631
12
-192.37189
22
89.6317
32
-729.4389
13
-192.37178
23
89.6318
33
-729.4388
0
3DFACE
8
0
10
-192.37189
20
89.6317
30
-729.4389
11
-133.79192
21
107.6647
31
-696.4297
12
-133.79192
22
46.570778
32
-663.05396
13
-133.79181
23
46.570877
33
-663.05383
0
3DFACE
8
0
10
-133.79192
20
46.570778
30
-663.05396
11
-96.178154
21
18.486038
31
-714.4627
12
-154.75813
22
0.45303345
32
-747.4719
13
-154.75803
23
0.45313343
33
-747.4718
0
3DFACE
8
0
10
-154.75813
20
0.45303345
30
-747.4719
11
-192.37189
21
28.537773
31
-696.0631
12
-133.79192
22
46.570778
32
-663.05396
13
-133.79181
23
46.570877
33
-663.05383
0
3DFACE
8
0
10
-192.37189
20
89.6317
30
-729.4389
11
-154.75813
21
61.54696
31
-780.84766
12
-96.178154
22
79.57996
32
-747.8385
13
-96.178055
23
79.58006
33
-747.8384
0
3DFACE
8
0
10
-96.178154
20
79.57996
30
-747.8385
11
-133.79192
21
107.6647
31
-696.4297
12
-192.37189
22
89.6317
32
-729.4389
13
-192.37178
23
89.6318
33
-729.4388
0
3DFACE
8
0
10
52.61605
20
-84.75561
30
-501.98132
11
79.65953
21
-104.94792
31
-538.9431
12
79.65953
22
-61.02272
32
-562.9396
13
79.65963
23
-61.02262
33
-562.93945
0
3DFACE
8
0
10
79.65953
20
-61.02272
30
-562.9396
11
52.61605
21
-40.830406
31
-525.9778
12
52.61605
22
-84.75561
32
-501.98132
13
52.61615
23
-84.75551
33
-501.98123
0
3DFACE
8
0
10
121.77726
20
-91.98258
30
-515.2102
11
94.73378
21
-71.79027
31
-478.24844
12
94.73378
22
-27.865067
32
-502.24487
13
94.73388
23
-27.864967
33
-502.24478
0
3DFACE
8
0
10
94.73378
20
-27.865067
30
-502.24487
11
121.77726
21
-48.05738
31
-539.20667
12
121.77726
22
-91.98258
32
-515.2102
13
121.77736
23
-91.98248
33
-515.2101
0
3DFACE
8
0
10
79.65953
20
-104.94792
30
-538.9431
11
121.77726
21
-91.98258
31
-515.2102
12
121.77726
22
-48.05738
32
-539.20667
13
121.77736
23
-48.05728
33
-539.20654
0
3DFACE
8
0
10
121.77726
20
-48.05738
30
-539.20667
11
79.65953
21
-61.02272
31
-562.9396
12
79.65953
22
-104.94792
32
-538.9431
13
79.65963
23
-104.94782
33
-538.943
0
3DFACE
8
0
10
94.73378
20
-71.79027
30
-478.24844
11
52.61605
21
-84.75561
31
-501.98132
12
52.61605
22
-40.830406
32
-525.9778
13
52.61615
23
-40.830307
33
-525.97766
0
3DFACE
8
0
10
52.61605
20
-40.830406
30
-525.9778
11
94.73378
21
-27.865067
31
-502.24487
12
94.73378
22
-71.79027
32
-478.24844
13
94.73388
23
-71.79017
33
-478.24835
0
3DFACE
8
0
10
94.73378
20
-71.79027
30
-478.24844
11
121.77726
21
-91.98258
31
-515.2102
12
79.65953
22
-104.94792
32
-538.9431
13
79.65963
23
-104.94782
33
-538.943
0
3DFACE
8
0
10
79.65953
20
-104.94792
30
-538.9431
11
52.61605
21
-84.75561
31
-501.98132
12
94.73378
22
-71.79027
32
-478.24844
13
94.73388
23
-71.79017
33
-478.24835
0
3DFACE
8
0
10
52.61605
20
-40.830406
30
-525.9778
11
79.65953
21
-61.02272
31
-562.9396
12
121.77726
22
-48.05738
32
-539.20667
13
121.77736
23
-48.05728
33
-539.20654
0
3DFACE
8
0
10
121.77726
20
-48.05738
30
-539.20667
11
94.73378
21
-27.865067
31
-502.24487
12
52.61605
22
-40.830406
32
-525.9778
13
52.61615
23
-40.830307
33
-525.97766
0
3DFACE
8
0
10
-203.00552
20
-47.895874
30
-549.94385
11
-135.62643
21
-98.205215
31
-642.0345
12
-135.62643
22
11.234831
32
-701.82184
13
-135.62633
23
11.234931
33
-701.8217
0
3DFACE
8
0
10
-135.62643
20
11.234831
30
-701.82184
11
-203.00552
21
61.544174
31
-609.7312
12
-203.00552
22
-47.895874
32
-549.94385
13
-203.00542
23
-47.895775
33
-549.9437
0
3DFACE
8
0
10
-30.689728
20
-65.90196
30
-582.9038
11
-98.06882
21
-15.592619
31
-490.81314
12
-98.06882
22
93.84743
32
-550.6005
13
-98.06872
23
93.84753
33
-550.6004
0
3DFACE
8
0
10
-98.06882
20
93.84743
30
-550.6005
11
-30.689728
21
43.538086
31
-642.69116
12
-30.689728
22
-65.90196
32
-582.9038
13
-30.689629
23
-65.90186
33
-582.9037
0
3DFACE
8
0
10
-135.62643
20
-98.205215
30
-642.0345
11
-30.689728
21
-65.90196
31
-582.9038
12
-30.689728
22
43.538086
32
-642.69116
13
-30.689629
23
43.538185
33
-642.69104
0
3DFACE
8
0
10
-30.689728
20
43.538086
30
-642.69116
11
-135.62643
21
11.234831
31
-701.82184
12
-135.62643
22
-98.205215
32
-642.0345
13
-135.62633
23
-98.20512
33
-642.03436
0
3DFACE
8
0
10
-98.06882
20
-15.592619
30
-490.81314
11
-203.00552
21
-47.895874
31
-549.94385
12
-203.00552
22
61.544174
32
-609.7312
13
-203.00542
23
61.544273
33
-609.7311
0
3DFACE
8
0
10
-203.00552
20
61.544174
30
-609.7312
11
-98.06882
21
93.84743
31
-550.6005
12
-98.06882
22
-15.592619
32
-490.81314
13
-98.06872
23
-15.592519
33
-490.81305
0
3DFACE
8
0
10
-98.06882
20
-15.592619
30
-490.81314
11
-30.689728
21
-65.90196
31
-582.9038
12
-135.62643
22
-98.205215
32
-642.0345
13
-135.62633
23
-98.20512
33
-642.03436
0
3DFACE
8
0
10
-135.62643
20
-98.205215
30
-642.0345
11
-203.00552
21
-47.895874
31
-549.94385
12
-98.06882
22
-15.592619
32
-490.81314
13
-98.06872
23
-15.592519
33
-490.81305
0
3DFACE
8
0
10
-203.00552
20
61.544174
30
-609.7312
11
-135.62643
21
11.234831
31
-701.82184
12
-30.689728
22
43.538086
32
-642.69116
13
-30.689629
23
43.538185
33
-642.69104
0
3DFACE
8
0
10
-30.689728
20
43.538086
30
-642.69116
11
-98.06882
21
93.84743
31
-550.6005
12
-203.00552
22
61.544174
32
-609.7312
13
-203.00542
23
61.544273
33
-609.7311
0
3DFACE
8
0
10
88.72913
20
-180.50879
30
-588.2191
11
135.60162
21
-215.50664
31
-652.2822
12
135.60162
22
-139.37431
32
-693.87354
13
135.60173
23
-139.3742
33
-693.8734
0
3DFACE
8
0
10
135.60162
20
-139.37431
30
-693.87354
11
88.72913
21
-104.37645
31
-629.81036
12
88.72913
22
-180.50879
32
-588.2191
13
88.72923
23
-180.50868
33
-588.219
0
3DFACE
8
0
10
208.6012
20
-193.03477
30
-611.14777
11
161.7287
21
-158.03691
31
-547.0846
12
161.7287
22
-81.90459
32
-588.6759
13
161.7288
23
-81.90449
33
-588.6758
0
3DFACE
8
0
10
161.7287
20
-81.90459
30
-588.6759
11
208.6012
21
-116.90244
31
-652.739
12
208.6012
22
-193.03477
32
-611.14777
13
208.6013
23
-193.03467
33
-611.14764
0
3DFACE
8
0
10
135.60162
20
-215.50664
30
-652.2822
11
208.6012
21
-193.03477
31
-611.14777
12
208.6012
22
-116.90244
32
-652.739
13
208.6013
23
-116.90234
33
-652.7389
0
3DFACE
8
0
10
208.6012
20
-116.90244
30
-652.739
11
135.60162
21
-139.37431
31
-693.87354
12
135.60162
22
-215.50664
32
-652.2822
13
135.60173
23
-215.50653
33
-652.2821
0
3DFACE
8
0
10
161.7287
20
-158.03691
30
-547.0846
11
88.72913
21
-180.50879
31
-588.2191
12
88.72913
22
-104.37645
32
-629.81036
13
88.72923
23
-104.37635
33
-629.81024
0
3DFACE
8
0
10
88.72913
20
-104.37645
30
-629.81036
11
161.7287
21
-81.90459
31
-588.6759
12
161.7287
22
-158.03691
32
-547.0846
13
161.7288
23
-158.0368
33
-547.0845
0
3DFACE
8
0
10
161.7287
20
-158.03691
30
-547.0846
11
208.6012
21
-193.03477
31
-611.14777
12
135.60162
22
-215.50664
32
-652.2822
13
135.60173
23
-215.50653
33
-652.2821
0
3DFACE
8
0
10
135.60162
20
-215.50664
30
-652.2822
11
88.72913
21
-180.50879
31
-588.2191
12
161.7287
22
-158.03691
32
-547.0846
13
161.7288
23
-158.0368
33
-547.0845
0
3DFACE
8
0
10
88.72913
20
-104.37645
30
-629.81036
11
135.60162
21
-139.37431
31
-693.87354
12
208.6012
22
-116.90244
32
-652.739
13
208.6013
23
-116.90234
33
-652.7389
0
3DFACE
8
0
10
208.6012
20
-116.90244
30
-652.739
11
161.7287
21
-81.90459
31
-588.6759
12
88.72913
22
-104.37645
32
-629.81036
13
88.72923
23
-104.37635
33
-629.81024
0
3DFACE
8
0
10
-61.805298
20
-209.99113
30
-616.30774
11
5.5737877
21
-260.30048
31
-708.3984
12
5.5737877
22
-150.86043
32
-768.1857
13
5.573888
23
-150.86032
33
-768.1856
0
3DFACE
8
0
10
5.5737877
20
-150.86043
30
-768.1857
11
-61.805298
21
-100.55109
31
-676.0951
12
-61.805298
22
-209.99113
32
-616.30774
13
-61.8052
23
-209.99103
33
-616.3076
0
3DFACE
8
0
10
110.5105
20
-227.99722
30
-649.2677
11
43.131413
21
-177.68788
31
-557.17706
12
43.131413
22
-68.24783
32
-616.9644
13
43.13151
23
-68.247734
33
-616.9643
0
3DFACE
8
0
10
43.131413
20
-68.24783
30
-616.9644
11
110.5105
21
-118.557175
31
-709.05505
12
110.5105
22
-227.99722
32
-649.2677
13
110.5106
23
-227.99712
33
-649.2676
0
3DFACE
8
0
10
5.5737877
20
-260.30048
30
-708.3984
11
110.5105
21
-227.99722
31
-649.2677
12
110.5105
22
-118.557175
32
-709.05505
13
110.5106
23
-118.557076
33
-709.05493
0
3DFACE
8
0
10
110.5105
20
-118.557175
30
-709.05505
11
5.5737877
21
-150.86043
31
-768.1857
12
5.5737877
22
-260.30048
32
-708.3984
13
5.573888
23
-260.30038
33
-708.39825
0
3DFACE
8
0
10
43.131413
20
-177.68788
30
-557.17706
11
-61.805298
21
-209.99113
31
-616.30774
12
-61.805298
22
-100.55109
32
-676.0951
13
-61.8052
23
-100.55099
33
-676.095
0
3DFACE
8
0
10
-61.805298
20
-100.55109
30
-676.0951
11
43.131413
21
-68.24783
31
-616.9644
12
43.131413
22
-177.68788
32
-557.17706
13
43.13151
23
-177.68777
33
-557.17694
0
3DFACE
8
0
10
43.131413
20
-177.68788
30
-557.17706
11
110.5105
21
-227.99722
31
-649.2677
12
5.5737877
22
-260.30048
32
-708.3984
13
5.573888
23
-260.30038
33
-708.39825
0
3DFACE
8
0
10
5.5737877
20
-260.30048
30
-708.3984
11
-61.805298
21
-209.99113
31
-616.30774
12
43.131413
22
-177.68788
32
-557.17706
13
43.13151
23
-177.68777
33
-557.17694
0
3DFACE
8
0
10
-61.805298
20
-100.55109
30
-676.0951
11
5.5737877
21
-150.86043
31
-768.1857
12
110.5105
22
-118.557175
32
-709.05505
13
110.5106
23
-118.557076
33
-709.05493
0
3DFACE
8
0
10
110.5105
20
-118.557175
30
-709.05505
11
43.131413
21
-68.24783
31
-616.9644
12
-61.805298
22
-100.55109
32
-676.0951
13
-61.8052
23
-100.55099
33
-676.095
0
3DFACE
8
0
10
-114.51647
20
32.836723
30
-563.9977
11
-67.64399
21
-2.1611328
31
-628.0608
12
-67.64399
22
73.97119
32
-669.6521
13
-67.64389
23
73.97129
33
-669.652
0
3DFACE
8
0
10
-67.64399
20
73.97119
30
-669.6521
11
-114.51647
21
108.969055
31
-605.5889
12
-114.51647
22
32.836723
32
-563.9977
13
-114.51637
23
32.836823
33
-563.99756
0
3DFACE
8
0
10
5.355583
20
20.31073
30
-586.92633
11
-41.5169
21
55.30859
31
-522.86316
12
-41.5169
22
131.44092
32
-564.45447
13
-41.5168
23
131.44102
33
-564.45435
0
3DFACE
8
0
10
-41.5169
20
131.44092
30
-564.45447
11
5.355583
21
96.44306
31
-628.5176
12
5.355583
22
20.31073
32
-586.92633
13
5.3556833
23
20.31083
33
-586.9262
0
3DFACE
8
0
10
-67.64399
20
-2.1611328
30
-628.0608
11
5.355583
21
20.31073
31
-586.92633
12
5.355583
22
96.44306
32
-628.5176
13
5.3556833
23
96.44316
33
-628.51746
0
3DFACE
8
0
10
5.355583
20
96.44306
30
-628.5176
11
-67.64399
21
73.97119
31
-669.6521
12
-67.64399
22
-2.1611328
32
-628.0608
13
-67.64389
23
-2.161033
33
-628.06067
0
3DFACE
8
0
10
-41.5169
20
55.30859
30
-522.86316
11
-114.51647
21
32.836723
31
-563.9977
12
-114.51647
22
108.969055
32
-605.5889
13
-114.51637
23
108.969154
33
-605.5888
0
3DFACE
8
0
10
-114.51647
20
108.969055
30
-605.5889
11
-41.5169
21
131.44092
31
-564.45447
12
-41.5169
22
55.30859
32
-522.86316
13
-41.5168
23
55.30869
33
-522.86304
0
3DFACE
8
0
10
-41.5169
20
55.30859
30
-522.86316
11
5.355583
21
20.31073
31
-586.92633
12
-67.64399
22
-2.1611328
32
-628.0608
13
-67.64389
23
-2.161033
33
-628.06067
0
3DFACE
8
0
10
-67.64399
20
-2.1611328
30
-628.0608
11
-114.51647
21
32.836723
31
-563.9977
12
-41.5169
22
55.30859
32
-522.86316
13
-41.5168
23
55.30869
33
-522.86304
0
3DFACE
8
0
10
-114.51647
20
108.969055
30
-605.5889
11
-67.64399
21
73.97119
31
-669.6521
12
5.355583
22
96.44306
32
-628.5176
13
5.3556833
23
96.44316
33
-628.51746
0
3DFACE
8
0
10
5.355583
20
96.44306
30
-628.5176
11
-41.5169
21
131.44092
31
-564.45447
12
-114.51647
22
108.969055
32
-605.5889
13
-114.51637
23
108.969154
33
-605.5888
0
3DFACE
8
0
10
-60.750244
20
-66.53027
30
-497.60474
11
0.06802368
21
-111.94092
31
-580.72833
12
0.06802368
22
-13.157221
32
-634.6941
13
0.06812368
23
-13.157121
33
-634.694
0
3DFACE
8
0
10
0.06802368
20
-13.157221
30
-634.6941
11
-60.750244
21
32.253418
31
-551.5705
12
-60.750244
22
-66.53027
32
-497.60474
13
-60.750145
23
-66.530174
33
-497.60464
0
3DFACE
8
0
10
94.786865
20
-82.78308
30
-527.3553
11
33.968597
21
-37.372444
31
-444.2317
12
33.968597
22
61.411255
32
-498.19745
13
33.968697
23
61.411354
33
-498.19736
0
3DFACE
8
0
10
33.968597
20
61.411255
30
-498.19745
11
94.786865
21
16.00061
31
-581.32104
12
94.786865
22
-82.78308
32
-527.3553
13
94.786964
23
-82.78298
33
-527.35516
0
3DFACE
8
0
10
0.06802368
20
-111.94092
30
-580.72833
11
94.786865
21
-82.78308
31
-527.3553
12
94.786865
22
16.00061
32
-581.32104
13
94.786964
23
16.00071
33
-581.3209
0
3DFACE
8
0
10
94.786865
20
16.00061
30
-581.32104
11
0.06802368
21
-13.157221
31
-634.6941
12
0.06802368
22
-111.94092
32
-580.72833
13
0.06812368
23
-111.94082
33
-580.7282
0
3DFACE
8
0
10
33.968597
20
-37.372444
30
-444.2317
11
-60.750244
21
-66.53027
31
-497.60474
12
-60.750244
22
32.253418
32
-551.5705
13
-60.750145
23
32.253517
33
-551.5704
0
3DFACE
8
0
10
-60.750244
20
32.253418
30
-551.5705
11
33.968597
21
61.411255
31
-498.19745
12
33.968597
22
-37.372444
32
-444.2317
13
33.968697
23
-37.372345
33
-444.2316
0
3DFACE
8
0
10
33.968597
20
-37.372444
30
-444.2317
11
94.786865
21
-82.78308
31
-527.3553
12
0.06802368
22
-111.94092
32
-580.72833
13
0.06812368
23
-111.94082
33
-580.7282
0
3DFACE
8
0
10
0.06802368
20
-111.94092
30
-580.72833
11
-60.750244
21
-66.53027
31
-497.60474
12
33.968597
22
-37.372444
32
-444.2317
13
33.968697
23
-37.372345
33
-444.2316
0
3DFACE
8
0
10
-60.750244
20
32.253418
30
-551.5705
11
0.06802368
21
-13.157221
31
-634.6941
12
94.786865
22
16.00061
32
-581.32104
13
94.786964
23
16.00071
33
-581.3209
0
3DFACE
8
0
10
94.786865
20
16.00061
30
-581.32104
11
33.968597
21
61.411255
31
-498.19745
12
-60.750244
22
32.253418
32
-551.5705
13
-60.750145
23
32.253517
33
-551.5704
0
3DFACE
8
0
10
-86.56318
20
55.34901
30
-559.3916
11
-47.52652
21
26.201855
31
-612.7451
12
-47.52652
22
89.6069
32
-647.3835
13
-47.52642
23
89.607
33
-647.38336
0
3DFACE
8
0
10
-47.52652
20
89.6069
30
-647.3835
11
-86.56318
21
118.75406
31
-594.02997
12
-86.56318
22
55.34901
32
-559.3916
13
-86.56308
23
55.34911
33
-559.3915
0
3DFACE
8
0
10
13.269478
20
44.917027
30
-578.48724
11
-25.767183
21
74.06418
31
-525.1337
12
-25.767183
22
137.46922
32
-559.7721
13
-25.767084
23
137.46933
33
-559.772
0
3DFACE
8
0
10
-25.767183
20
137.46922
30
-559.7721
11
13.269478
21
108.32207
31
-613.1256
12
13.269478
22
44.917027
32
-578.48724
13
13.269578
23
44.917126
33
-578.4871
0
3DFACE
8
0
10
-47.52652
20
26.201855
30
-612.7451
11
13.269478
21
44.917027
31
-578.48724
12
13.269478
22
108.32207
32
-613.1256
13
13.269578
23
108.32217
33
-613.1255
0
3DFACE
8
0
10
13.269478
20
108.32207
30
-613.1256
11
-47.52652
21
89.6069
31
-647.3835
12
-47.52652
22
26.201855
32
-612.7451
13
-47.52642
23
26.201954
33
-612.745
0
3DFACE
8
0
10
-25.767183
20
74.06418
30
-525.1337
11
-86.56318
21
55.34901
31
-559.3916
12
-86.56318
22
118.75406
32
-594.02997
13
-86.56308
23
118.75416
33
-594.02985
0
3DFACE
8
0
10
-86.56318
20
118.75406
30
-594.02997
11
-25.767183
21
137.46922
31
-559.7721
12
-25.767183
22
74.06418
32
-525.1337
13
-25.767084
23
74.06428
33
-525.1336
0
3DFACE
8
0
10
-25.767183
20
74.06418
30
-525.1337
11
13.269478
21
44.917027
31
-578.48724
12
-47.52652
22
26.201855
32
-612.7451
13
-47.52642
23
26.201954
33
-612.745
0
3DFACE
8
0
10
-47.52652
20
26.201855
30
-612.7451
11
-86.56318
21
55.34901
31
-559.3916
12
-25.767183
22
74.06418
32
-525.1337
13
-25.767084
23
74.06428
33
-525.1336
0
3DFACE
8
0
10
-86.56318
20
118.75406
30
-594.02997
11
-47.52652
21
89.6069
31
-647.3835
12
13.269478
22
108.32207
32
-613.1256
13
13.269578
23
108.32217
33
-613.1255
0
3DFACE
8
0
10
13.269478
20
108.32207
30
-613.1256
11
-25.767183
21
137.46922
31
-559.7721
12
-86.56318
22
118.75406
32
-594.02997
13
-86.56308
23
118.75416
33
-594.02985
0
3DFACE
8
0
10
-57.982864
20
-131.09187
30
-637.5198
11
3.3133087
21
-176.85934
31
-721.2966
12
3.3133087
22
-77.299416
32
-775.6864
13
3.3134086
23
-77.29932
33
-775.6863
0
3DFACE
8
0
10
3.3133087
20
-77.299416
30
-775.6864
11
-57.982864
21
-31.531948
31
-691.9096
12
-57.982864
22
-131.09187
32
-637.5198
13
-57.982765
23
-131.09177
33
-637.51965
0
3DFACE
8
0
10
98.77644
20
-147.47238
30
-667.5041
11
37.48027
21
-101.70492
31
-583.7273
12
37.48027
22
-2.1449966
32
-638.1171
13
37.48037
23
-2.1448967
33
-638.117
0
3DFACE
8
0
10
37.48027
20
-2.1449966
30
-638.1171
11
98.77644
21
-47.912464
31
-721.8939
12
98.77644
22
-147.47238
32
-667.5041
13
98.77654
23
-147.47227
33
-667.50397
0
3DFACE
8
0
10
3.3133087
20
-176.85934
30
-721.2966
11
98.77644
21
-147.47238
31
-667.5041
12
98.77644
22
-47.912464
32
-721.8939
13
98.77654
23
-47.912365
33
-721.8938
0
3DFACE
8
0
10
98.77644
20
-47.912464
30
-721.8939
11
3.3133087
21
-77.299416
31
-775.6864
12
3.3133087
22
-176.85934
32
-721.2966
13
3.3134086
23
-176.85924
33
-721.29645
0
3DFACE
8
0
10
37.48027
20
-101.70492
30
-583.7273
11
-57.982864
21
-131.09187
31
-637.5198
12
-57.982864
22
-31.531948
32
-691.9096
13
-57.982765
23
-31.531849
33
-691.9095
0
3DFACE
8
0
10
-57.982864
20
-31.531948
30
-691.9096
11
37.48027
21
-2.1449966
31
-638.1171
12
37.48027
22
-101.70492
32
-583.7273
13
37.48037
23
-101.70482
33
-583.7272
0
3DFACE
8
0
10
37.48027
20
-101.70492
30
-583.7273
11
98.77644
21
-147.47238
31
-667.5041
12
3.3133087
22
-176.85934
32
-721.2966
13
3.3134086
23
-176.85924
33
-721.29645
0
3DFACE
8
0
10
3.3133087
20
-176.85934
30
-721.2966
11
-57.982864
21
-131.09187
31
-637.5198
12
37.48027
22
-101.70492
32
-583.7273
13
37.48037
23
-101.70482
33
-583.7272
0
3DFACE
8
0
10
-57.982864
20
-31.531948
30
-691.9096
11
3.3133087
21
-77.299416
31
-775.6864
12
98.77644
22
-47.912464
32
-721.8939
13
98.77654
23
-47.912365
33
-721.8938
0
3DFACE
8
0
10
98.77644
20
-47.912464
30
-721.8939
11
37.48027
21
-2.1449966
31
-638.1171
12
-57.982864
22
-31.531948
32
-691.9096
13
-57.982765
23
-31.531849
33
-691.9095
0
3DFACE
8
0
10
114.11552
20
-32.313484
30
-533.9042
11
142.24695
21
-53.318123
31
-572.3529
12
142.24695
22
-7.6258345
32
-597.3147
13
142.24706
23
-7.6257343
33
-597.3146
0
3DFACE
8
0
10
142.24695
20
-7.6258345
30
-597.3147
11
114.11552
21
13.378807
31
-558.86597
12
114.11552
22
-32.313484
32
-533.9042
13
114.115616
23
-32.313385
33
-533.90405
0
3DFACE
8
0
10
186.05905
20
-39.8312
30
-547.6653
11
157.92761
21
-18.826557
31
-509.21652
12
157.92761
22
26.86573
32
-534.17834
13
157.92772
23
26.86583
33
-534.1782
0
3DFACE
8
0
10
157.92761
20
26.86573
30
-534.17834
11
186.05905
21
5.8610916
31
-572.6271
12
186.05905
22
-39.8312
32
-547.6653
13
186.05916
23
-39.8311
33
-547.66516
0
3DFACE
8
0
10
142.24695
20
-53.318123
30
-572.3529
11
186.05905
21
-39.8312
31
-547.6653
12
186.05905
22
5.8610916
32
-572.6271
13
186.05916
23
5.8611917
33
-572.62695
0
3DFACE
8
0
10
186.05905
20
5.8610916
30
-572.6271
11
142.24695
21
-7.6258345
31
-597.3147
12
142.24695
22
-53.318123
32
-572.3529
13
142.24706
23
-53.318024
33
-572.3528
0
3DFACE
8
0
10
157.92761
20
-18.826557
30
-509.21652
11
114.11552
21
-32.313484
31
-533.9042
12
114.11552
22
13.378807
32
-558.86597
13
114.115616
23
13.378907
33
-558.86584
0
3DFACE
8
0
10
114.11552
20
13.378807
30
-558.86597
11
157.92761
21
26.86573
31
-534.17834
12
157.92761
22
-18.826557
32
-509.21652
13
157.92772
23
-18.826458
33
-509.21643
0
3DFACE
8
0
10
157.92761
20
-18.826557
30
-509.21652
11
186.05905
21
-39.8312
31
-547.6653
12
142.24695
22
-53.318123
32
-572.3529
13
142.24706
23
-53.318024
33
-572.3528
0
3DFACE
8
0
10
142.24695
20
-53.318123
30
-572.3529
11
114.11552
21
-32.313484
31
-533.9042
12
157.92761
22
-18.826557
32
-509.21652
13
157.92772
23
-18.826458
33
-509.21643
0
3DFACE
8
0
10
114.11552
20
13.378807
30
-558.86597
11
142.24695
21
-7.6258345
31
-597.3147
12
186.05905
22
5.8610916
32
-572.6271
13
186.05916
23
5.8611917
33
-572.62695
0
3DFACE
8
0
10
186.05905
20
5.8610916
30
-572.6271
11
157.92761
21
26.86573
31
-534.17834
12
114.11552
22
13.378807
32
-558.86597
13
114.115616
23
13.378907
33
-558.86584
0
ENDSEC
0
EOF
