0
SECTION
2
ENTITIES
0
3DFACE
8
0
10
NaN
20
NaN
30
NaN
11
NaN
21
NaN
31
NaN
12
NaN
22
NaN
32
NaN
13
NaN
23
NaN
33
NaN
0
3DFACE
8
0
10
NaN
20
NaN
30
NaN
11
NaN
21
NaN
31
NaN
12
NaN
22
NaN
32
NaN
13
NaN
23
NaN
33
NaN
0
3DFACE
8
0
10
NaN
20
NaN
30
NaN
11
NaN
21
NaN
31
NaN
12
NaN
22
NaN
32
NaN
13
NaN
23
NaN
33
NaN
0
3DFACE
8
0
10
NaN
20
NaN
30
NaN
11
NaN
21
NaN
31
NaN
12
NaN
22
NaN
32
NaN
13
NaN
23
NaN
33
NaN
0
3DFACE
8
0
10
NaN
20
NaN
30
NaN
11
NaN
21
NaN
31
NaN
12
NaN
22
NaN
32
NaN
13
NaN
23
NaN
33
NaN
0
3DFACE
8
0
10
NaN
20
NaN
30
NaN
11
NaN
21
NaN
31
NaN
12
NaN
22
NaN
32
NaN
13
NaN
23
NaN
33
NaN
0
3DFACE
8
0
10
NaN
20
NaN
30
NaN
11
NaN
21
NaN
31
NaN
12
NaN
22
NaN
32
NaN
13
NaN
23
NaN
33
NaN
0
3DFACE
8
0
10
NaN
20
NaN
30
NaN
11
NaN
21
NaN
31
NaN
12
NaN
22
NaN
32
NaN
13
NaN
23
NaN
33
NaN
0
3DFACE
8
0
10
NaN
20
NaN
30
NaN
11
NaN
21
NaN
31
NaN
12
NaN
22
NaN
32
NaN
13
NaN
23
NaN
33
NaN
0
3DFACE
8
0
10
NaN
20
NaN
30
NaN
11
NaN
21
NaN
31
NaN
12
NaN
22
NaN
32
NaN
13
NaN
23
NaN
33
NaN
0
3DFACE
8
0
10
NaN
20
NaN
30
NaN
11
NaN
21
NaN
31
NaN
12
NaN
22
NaN
32
NaN
13
NaN
23
NaN
33
NaN
0
3DFACE
8
0
10
NaN
20
NaN
30
NaN
11
NaN
21
NaN
31
NaN
12
NaN
22
NaN
32
NaN
13
NaN
23
NaN
33
NaN
0
3DFACE
8
0
10
-156.14792
20
90.980484
30
-610.1253
11
-77.24285
21
32.06514
31
-717.9691
12
-77.24285
22
160.22618
32
-787.98376
13
-77.24275
23
160.22629
33
-787.98364
0
3DFACE
8
0
10
-77.24285
20
160.22618
30
-787.98376
11
-156.14792
21
219.14153
31
-680.14
12
-156.14792
22
90.980484
32
-610.1253
13
-156.14781
23
90.98058
33
-610.1252
0
3DFACE
8
0
10
45.644493
20
69.89424
30
-648.7234
11
-33.260567
21
128.80959
31
-540.87964
12
-33.260567
22
256.97064
32
-610.8943
13
-33.260468
23
256.97073
33
-610.89417
0
3DFACE
8
0
10
-33.260567
20
256.97064
30
-610.8943
11
45.644493
21
198.05528
31
-718.7381
12
45.644493
22
69.89424
32
-648.7234
13
45.644592
23
69.89434
33
-648.72327
0
3DFACE
8
0
10
-77.24285
20
32.06514
30
-717.9691
11
45.644493
21
69.89424
31
-648.7234
12
45.644493
22
198.05528
32
-718.7381
13
45.644592
23
198.05539
33
-718.738
0
3DFACE
8
0
10
45.644493
20
198.05528
30
-718.7381
11
-77.24285
21
160.22618
31
-787.98376
12
-77.24285
22
32.06514
32
-717.9691
13
-77.24275
23
32.06524
33
-717.969
0
3DFACE
8
0
10
-33.260567
20
128.80959
30
-540.87964
11
-156.14792
21
90.980484
31
-610.1253
12
-156.14792
22
219.14153
32
-680.14
13
-156.14781
23
219.14163
33
-680.1399
0
3DFACE
8
0
10
-156.14792
20
219.14153
30
-680.14
11
-33.260567
21
256.97064
31
-610.8943
12
-33.260567
22
128.80959
32
-540.87964
13
-33.260468
23
128.8097
33
-540.8795
0
3DFACE
8
0
10
-33.260567
20
128.80959
30
-540.87964
11
45.644493
21
69.89424
31
-648.7234
12
-77.24285
22
32.06514
32
-717.9691
13
-77.24275
23
32.06524
33
-717.969
0
3DFACE
8
0
10
-77.24285
20
32.06514
30
-717.9691
11
-156.14792
21
90.980484
31
-610.1253
12
-33.260567
22
128.80959
32
-540.87964
13
-33.260468
23
128.8097
33
-540.8795
0
3DFACE
8
0
10
-156.14792
20
219.14153
30
-680.14
11
-77.24285
21
160.22618
31
-787.98376
12
45.644493
22
198.05528
32
-718.7381
13
45.644592
23
198.05539
33
-718.738
0
3DFACE
8
0
10
45.644493
20
198.05528
30
-718.7381
11
-33.260567
21
256.97064
31
-610.8943
12
-156.14792
22
219.14153
32
-680.14
13
-156.14781
23
219.14163
33
-680.1399
0
3DFACE
8
0
10
-47.70366
20
-8.675861
30
-519.08044
11
26.11361
21
-63.792343
31
-619.9705
12
26.11361
22
56.104885
32
-685.47064
13
26.113708
23
56.104984
33
-685.4705
0
3DFACE
8
0
10
26.11361
20
56.104885
30
-685.47064
11
-47.70366
21
111.22136
31
-584.5806
12
-47.70366
22
-8.675861
32
-519.08044
13
-47.70356
23
-8.675761
33
-519.0803
0
3DFACE
8
0
10
141.0772
20
-28.40245
30
-555.18976
11
67.259926
21
26.714024
31
-454.29974
12
67.259926
22
146.61125
32
-519.79987
13
67.260025
23
146.61136
33
-519.79974
0
3DFACE
8
0
10
67.259926
20
146.61125
30
-519.79987
11
141.0772
21
91.49477
31
-620.68994
12
141.0772
22
-28.40245
32
-555.18976
13
141.0773
23
-28.402351
33
-555.18964
0
3DFACE
8
0
10
26.11361
20
-63.792343
30
-619.9705
11
141.0772
21
-28.40245
31
-555.18976
12
141.0772
22
91.49477
32
-620.68994
13
141.0773
23
91.494865
33
-620.6898
0
3DFACE
8
0
10
141.0772
20
91.49477
30
-620.68994
11
26.11361
21
56.104885
31
-685.47064
12
26.11361
22
-63.792343
32
-619.9705
13
26.113708
23
-63.792244
33
-619.9704
0
3DFACE
8
0
10
67.259926
20
26.714024
30
-454.29974
11
-47.70366
21
-8.675861
31
-519.08044
12
-47.70366
22
111.22136
32
-584.5806
13
-47.70356
23
111.22146
33
-584.5805
0
3DFACE
8
0
10
-47.70366
20
111.22136
30
-584.5806
11
67.259926
21
146.61125
31
-519.79987
12
67.259926
22
26.714024
32
-454.29974
13
67.260025
23
26.714123
33
-454.29965
0
3DFACE
8
0
10
67.259926
20
26.714024
30
-454.29974
11
141.0772
21
-28.40245
31
-555.18976
12
26.11361
22
-63.792343
32
-619.9705
13
26.113708
23
-63.792244
33
-619.9704
0
3DFACE
8
0
10
26.11361
20
-63.792343
30
-619.9705
11
-47.70366
21
-8.675861
31
-519.08044
12
67.259926
22
26.714024
32
-454.29974
13
67.260025
23
26.714123
33
-454.29965
0
3DFACE
8
0
10
-47.70366
20
111.22136
30
-584.5806
11
26.11361
21
56.104885
31
-685.47064
12
141.0772
22
91.49477
32
-620.68994
13
141.0773
23
91.494865
33
-620.6898
0
3DFACE
8
0
10
141.0772
20
91.49477
30
-620.68994
11
67.259926
21
146.61125
31
-519.79987
12
-47.70366
22
111.22136
32
-584.5806
13
-47.70356
23
111.22146
33
-584.5805
0
3DFACE
8
0
10
-94.35339
20
-24.636515
30
-590.8735
11
-58.377487
21
-51.498325
31
-640.0437
12
-58.377487
22
6.935314
32
-671.9661
13
-58.377388
23
6.9354143
33
-671.966
0
3DFACE
8
0
10
-58.377487
20
6.935314
30
-671.9661
11
-94.35339
21
33.797123
31
-622.79596
12
-94.35339
22
-24.636515
32
-590.8735
13
-94.353294
23
-24.636415
33
-590.87335
0
3DFACE
8
0
10
-2.3483276
20
-34.250553
30
-608.47186
11
-38.324234
21
-7.3887444
31
-559.3017
12
-38.324234
22
51.044895
32
-591.2241
13
-38.324135
23
51.044994
33
-591.224
0
3DFACE
8
0
10
-38.324234
20
51.044895
30
-591.2241
11
-2.3483276
21
24.183084
31
-640.39435
12
-2.3483276
22
-34.250553
32
-608.47186
13
-2.3482277
23
-34.250454
33
-608.47174
0
3DFACE
8
0
10
-58.377487
20
-51.498325
30
-640.0437
11
-2.3483276
21
-34.250553
31
-608.47186
12
-2.3483276
22
24.183084
32
-640.39435
13
-2.3482277
23
24.183184
33
-640.3942
0
3DFACE
8
0
10
-2.3483276
20
24.183084
30
-640.39435
11
-58.377487
21
6.935314
31
-671.9661
12
-58.377487
22
-51.498325
32
-640.0437
13
-58.377388
23
-51.498226
33
-640.0436
0
3DFACE
8
0
10
-38.324234
20
-7.3887444
30
-559.3017
11
-94.35339
21
-24.636515
31
-590.8735
12
-94.35339
22
33.797123
32
-622.79596
13
-94.353294
23
33.797222
33
-622.79584
0
3DFACE
8
0
10
-94.35339
20
33.797123
30
-622.79596
11
-38.324234
21
51.044895
31
-591.2241
12
-38.324234
22
-7.3887444
32
-559.3017
13
-38.324135
23
-7.388644
33
-559.3016
0
3DFACE
8
0
10
-38.324234
20
-7.3887444
30
-559.3017
11
-2.3483276
21
-34.250553
31
-608.47186
12
-58.377487
22
-51.498325
32
-640.0437
13
-58.377388
23
-51.498226
33
-640.0436
0
3DFACE
8
0
10
-58.377487
20
-51.498325
30
-640.0437
11
-94.35339
21
-24.636515
31
-590.8735
12
-38.324234
22
-7.3887444
32
-559.3017
13
-38.324135
23
-7.388644
33
-559.3016
0
3DFACE
8
0
10
-94.35339
20
33.797123
30
-622.79596
11
-58.377487
21
6.935314
31
-671.9661
12
-2.3483276
22
24.183084
32
-640.39435
13
-2.3482277
23
24.183184
33
-640.3942
0
3DFACE
8
0
10
-2.3483276
20
24.183084
30
-640.39435
11
-38.324234
21
51.044895
31
-591.2241
12
-94.35339
22
33.797123
32
-622.79596
13
-94.353294
23
33.797222
33
-622.79584
0
3DFACE
8
0
10
-147.9891
20
-7.688278
30
-725.7522
11
-119.061646
21
-29.287281
31
-765.2889
12
-119.061646
22
17.697952
32
-790.95703
13
-119.06155
23
17.698051
33
-790.9569
0
3DFACE
8
0
10
-119.061646
20
17.697952
30
-790.95703
11
-147.9891
21
39.296955
31
-751.42035
12
-147.9891
22
-7.688278
32
-725.7522
13
-147.989
23
-7.688178
33
-725.7521
0
3DFACE
8
0
10
-74.0098
20
-15.41872
30
-739.90265
11
-102.937256
21
6.180282
31
-700.36597
12
-102.937256
22
53.165516
32
-726.0341
13
-102.93716
23
53.165615
33
-726.034
0
3DFACE
8
0
10
-102.937256
20
53.165516
30
-726.0341
11
-74.0098
21
31.566513
31
-765.5708
12
-74.0098
22
-15.41872
32
-739.90265
13
-74.009705
23
-15.41862
33
-739.9025
0
3DFACE
8
0
10
-119.061646
20
-29.287281
30
-765.2889
11
-74.0098
21
-15.41872
31
-739.90265
12
-74.0098
22
31.566513
32
-765.5708
13
-74.009705
23
31.566612
33
-765.5707
0
3DFACE
8
0
10
-74.0098
20
31.566513
30
-765.5708
11
-119.061646
21
17.697952
31
-790.95703
12
-119.061646
22
-29.287281
32
-765.2889
13
-119.06155
23
-29.287182
33
-765.28876
0
3DFACE
8
0
10
-102.937256
20
6.180282
30
-700.36597
11
-147.9891
21
-7.688278
31
-725.7522
12
-147.9891
22
39.296955
32
-751.42035
13
-147.989
23
39.297054
33
-751.4202
0
3DFACE
8
0
10
-147.9891
20
39.296955
30
-751.42035
11
-102.937256
21
53.165516
31
-726.0341
12
-102.937256
22
6.180282
32
-700.36597
13
-102.93716
23
6.1803823
33
-700.36584
0
3DFACE
8
0
10
-102.937256
20
6.180282
30
-700.36597
11
-74.0098
21
-15.41872
31
-739.90265
12
-119.061646
22
-29.287281
32
-765.2889
13
-119.06155
23
-29.287182
33
-765.28876
0
3DFACE
8
0
10
-119.061646
20
-29.287281
30
-765.2889
11
-147.9891
21
-7.688278
31
-725.7522
12
-102.937256
22
6.180282
32
-700.36597
13
-102.93716
23
6.1803823
33
-700.36584
0
3DFACE
8
0
10
-147.9891
20
39.296955
30
-751.42035
11
-119.061646
21
17.697952
31
-790.95703
12
-74.0098
22
31.566513
32
-765.5708
13
-74.009705
23
31.566612
33
-765.5707
0
3DFACE
8
0
10
-74.0098
20
31.566513
30
-765.5708
11
-102.937256
21
53.165516
31
-726.0341
12
-147.9891
22
39.296955
32
-751.42035
13
-147.989
23
39.297054
33
-751.4202
0
3DFACE
8
0
10
-14.372572
20
-91.68822
30
-626.9976
11
1.8705349
21
-103.816315
31
-649.19794
12
1.8705349
22
-77.43355
32
-663.6109
13
1.8706349
23
-77.43345
33
-663.6108
0
3DFACE
8
0
10
1.8705349
20
-77.43355
30
-663.6109
11
-14.372572
21
-65.30546
31
-641.4106
12
-14.372572
22
-91.68822
32
-626.9976
13
-14.372472
23
-91.68812
33
-626.9975
0
3DFACE
8
0
10
27.167677
20
-96.02895
30
-634.9433
11
10.92457
21
-83.90086
31
-612.743
12
10.92457
22
-57.518097
32
-627.15594
13
10.92467
23
-57.517998
33
-627.1558
0
3DFACE
8
0
10
10.92457
20
-57.518097
30
-627.15594
11
27.167677
21
-69.646194
31
-649.35626
12
27.167677
22
-96.02895
32
-634.9433
13
27.167776
23
-96.028854
33
-634.9432
0
3DFACE
8
0
10
1.8705349
20
-103.816315
30
-649.19794
11
27.167677
21
-96.02895
31
-634.9433
12
27.167677
22
-69.646194
32
-649.35626
13
27.167776
23
-69.646095
33
-649.35614
0
3DFACE
8
0
10
27.167677
20
-69.646194
30
-649.35626
11
1.8705349
21
-77.43355
31
-663.6109
12
1.8705349
22
-103.816315
32
-649.19794
13
1.8706349
23
-103.816216
33
-649.1978
0
3DFACE
8
0
10
10.92457
20
-83.90086
30
-612.743
11
-14.372572
21
-91.68822
31
-626.9976
12
-14.372572
22
-65.30546
32
-641.4106
13
-14.372472
23
-65.30536
33
-641.41046
0
3DFACE
8
0
10
-14.372572
20
-65.30546
30
-641.4106
11
10.92457
21
-57.518097
31
-627.15594
12
10.92457
22
-83.90086
32
-612.743
13
10.92467
23
-83.900764
33
-612.74286
0
3DFACE
8
0
10
10.92457
20
-83.90086
30
-612.743
11
27.167677
21
-96.02895
31
-634.9433
12
1.8705349
22
-103.816315
32
-649.19794
13
1.8706349
23
-103.816216
33
-649.1978
0
3DFACE
8
0
10
1.8705349
20
-103.816315
30
-649.19794
11
-14.372572
21
-91.68822
31
-626.9976
12
10.92457
22
-83.90086
32
-612.743
13
10.92467
23
-83.900764
33
-612.74286
0
3DFACE
8
0
10
-14.372572
20
-65.30546
30
-641.4106
11
1.8705349
21
-77.43355
31
-663.6109
12
27.167677
22
-69.646194
32
-649.35626
13
27.167776
23
-69.646095
33
-649.35614
0
3DFACE
8
0
10
27.167677
20
-69.646194
30
-649.35626
11
10.92457
21
-57.518097
31
-627.15594
12
-14.372572
22
-65.30546
32
-641.4106
13
-14.372472
23
-65.30536
33
-641.41046
0
3DFACE
8
0
10
-129.45416
20
-93.871
30
-589.45465
11
-64.808334
21
-142.13953
31
-677.8096
12
-64.808334
22
-37.138947
32
-735.1717
13
-64.808235
23
-37.138847
33
-735.1716
0
3DFACE
8
0
10
-64.808334
20
-37.138947
30
-735.1717
11
-129.45416
21
11.129581
31
-646.8167
12
-129.45416
22
-93.871
32
-589.45465
13
-129.45406
23
-93.8709
33
-589.4545
0
3DFACE
8
0
10
35.87159
20
-111.14667
30
-621.0776
11
-28.774246
21
-62.878143
31
-532.7226
12
-28.774246
22
42.122444
32
-590.0847
13
-28.774147
23
42.122543
33
-590.0846
0
3DFACE
8
0
10
-28.774246
20
42.122444
30
-590.0847
11
35.87159
21
-6.146084
31
-678.43964
12
35.87159
22
-111.14667
32
-621.0776
13
35.87169
23
-111.14657
33
-621.07745
0
3DFACE
8
0
10
-64.808334
20
-142.13953
30
-677.8096
11
35.87159
21
-111.14667
31
-621.0776
12
35.87159
22
-6.146084
32
-678.43964
13
35.87169
23
-6.1459837
33
-678.4395
0
3DFACE
8
0
10
35.87159
20
-6.146084
30
-678.43964
11
-64.808334
21
-37.138947
31
-735.1717
12
-64.808334
22
-142.13953
32
-677.8096
13
-64.808235
23
-142.13942
33
-677.80945
0
3DFACE
8
0
10
-28.774246
20
-62.878143
30
-532.7226
11
-129.45416
21
-93.871
31
-589.45465
12
-129.45416
22
11.129581
32
-646.8167
13
-129.45406
23
11.129682
33
-646.8166
0
3DFACE
8
0
10
-129.45416
20
11.129581
30
-646.8167
11
-28.774246
21
42.122444
31
-590.0847
12
-28.774246
22
-62.878143
32
-532.7226
13
-28.774147
23
-62.878044
33
-532.7225
0
3DFACE
8
0
10
-28.774246
20
-62.878143
30
-532.7226
11
35.87159
21
-111.14667
31
-621.0776
12
-64.808334
22
-142.13953
32
-677.8096
13
-64.808235
23
-142.13942
33
-677.80945
0
3DFACE
8
0
10
-64.808334
20
-142.13953
30
-677.8096
11
-129.45416
21
-93.871
31
-589.45465
12
-28.774246
22
-62.878143
32
-532.7226
13
-28.774147
23
-62.878044
33
-532.7225
0
3DFACE
8
0
10
-129.45416
20
11.129581
30
-646.8167
11
-64.808334
21
-37.138947
31
-735.1717
12
35.87159
22
-6.146084
32
-678.43964
13
35.87169
23
-6.1459837
33
-678.4395
0
3DFACE
8
0
10
35.87159
20
-6.146084
30
-678.43964
11
-28.774246
21
42.122444
31
-590.0847
12
-129.45416
22
11.129581
32
-646.8167
13
-129.45406
23
11.129682
33
-646.8166
0
3DFACE
8
0
10
37.85317
20
77.5593
30
-583.05896
11
77.89108
21
47.66455
31
-637.78094
12
77.89108
22
112.69588
32
-673.30774
13
77.89118
23
112.69598
33
-673.3076
0
3DFACE
8
0
10
77.89108
20
112.69588
30
-673.30774
11
37.85317
21
142.59064
31
-618.58575
12
37.85317
22
77.5593
32
-583.05896
13
37.853268
23
77.5594
33
-583.05884
0
3DFACE
8
0
10
140.24644
20
66.85975
30
-602.64435
11
100.20853
21
96.7545
31
-547.92236
12
100.20853
22
161.78583
32
-583.44916
13
100.208626
23
161.78593
33
-583.44904
0
3DFACE
8
0
10
100.20853
20
161.78583
30
-583.44916
11
140.24644
21
131.89108
31
-638.17114
12
140.24644
22
66.85975
32
-602.64435
13
140.24655
23
66.85985
33
-602.6442
0
3DFACE
8
0
10
77.89108
20
47.66455
30
-637.78094
11
140.24644
21
66.85975
31
-602.64435
12
140.24644
22
131.89108
32
-638.17114
13
140.24655
23
131.89119
33
-638.171
0
3DFACE
8
0
10
140.24644
20
131.89108
30
-638.17114
11
77.89108
21
112.69588
31
-673.30774
12
77.89108
22
47.66455
32
-637.78094
13
77.89118
23
47.66465
33
-637.7808
0
3DFACE
8
0
10
100.20853
20
96.7545
30
-547.92236
11
37.85317
21
77.5593
31
-583.05896
12
37.85317
22
142.59064
32
-618.58575
13
37.853268
23
142.59074
33
-618.58563
0
3DFACE
8
0
10
37.85317
20
142.59064
30
-618.58575
11
100.20853
21
161.78583
31
-583.44916
12
100.20853
22
96.7545
32
-547.92236
13
100.208626
23
96.7546
33
-547.92224
0
3DFACE
8
0
10
100.20853
20
96.7545
30
-547.92236
11
140.24644
21
66.85975
31
-602.64435
12
77.89108
22
47.66455
32
-637.78094
13
77.89118
23
47.66465
33
-637.7808
0
3DFACE
8
0
10
77.89108
20
47.66455
30
-637.78094
11
37.85317
21
77.5593
31
-583.05896
12
100.20853
22
96.7545
32
-547.92236
13
100.208626
23
96.7546
33
-547.92224
0
3DFACE
8
0
10
37.85317
20
142.59064
30
-618.58575
11
77.89108
21
112.69588
31
-673.30774
12
140.24644
22
131.89108
32
-638.17114
13
140.24655
23
131.89119
33
-638.171
0
3DFACE
8
0
10
140.24644
20
131.89108
30
-638.17114
11
100.20853
21
161.78583
31
-583.44916
12
37.85317
22
142.59064
32
-618.58575
13
37.853268
23
142.59074
33
-618.58563
0
3DFACE
8
0
10
-80.91602
20
-99.73932
30
-587.0268
11
-16.270187
21
-148.00784
31
-675.3817
12
-16.270187
22
-43.007263
32
-732.74384
13
-16.270088
23
-43.007164
33
-732.7437
0
3DFACE
8
0
10
-16.270187
20
-43.007263
30
-732.74384
11
-80.91602
21
5.261265
31
-644.38885
12
-80.91602
22
-99.73932
32
-587.0268
13
-80.915924
23
-99.73922
33
-587.0267
0
3DFACE
8
0
10
84.40974
20
-117.014984
30
-618.6497
11
19.7639
21
-68.74646
31
-530.29474
12
19.7639
22
36.254128
32
-587.65686
13
19.764
23
36.254227
33
-587.65674
0
3DFACE
8
0
10
19.7639
20
36.254128
30
-587.65686
11
84.40974
21
-12.0144005
31
-676.0118
12
84.40974
22
-117.014984
32
-618.6497
13
84.409836
23
-117.014885
33
-618.6496
0
3DFACE
8
0
10
-16.270187
20
-148.00784
30
-675.3817
11
84.40974
21
-117.014984
31
-618.6497
12
84.40974
22
-12.0144005
32
-676.0118
13
84.409836
23
-12.0143
33
-676.01166
0
3DFACE
8
0
10
84.40974
20
-12.0144005
30
-676.0118
11
-16.270187
21
-43.007263
31
-732.74384
12
-16.270187
22
-148.00784
32
-675.3817
13
-16.270088
23
-148.00774
33
-675.3816
0
3DFACE
8
0
10
19.7639
20
-68.74646
30
-530.29474
11
-80.91602
21
-99.73932
31
-587.0268
12
-80.91602
22
5.261265
32
-644.38885
13
-80.915924
23
5.261365
33
-644.38873
0
3DFACE
8
0
10
-80.91602
20
5.261265
30
-644.38885
11
19.7639
21
36.254128
31
-587.65686
12
19.7639
22
-68.74646
32
-530.29474
13
19.764
23
-68.74636
33
-530.2946
0
3DFACE
8
0
10
19.7639
20
-68.74646
30
-530.29474
11
84.40974
21
-117.014984
31
-618.6497
12
-16.270187
22
-148.00784
32
-675.3817
13
-16.270088
23
-148.00774
33
-675.3816
0
3DFACE
8
0
10
-16.270187
20
-148.00784
30
-675.3817
11
-80.91602
21
-99.73932
31
-587.0268
12
19.7639
22
-68.74646
32
-530.29474
13
19.764
23
-68.74636
33
-530.2946
0
3DFACE
8
0
10
-80.91602
20
5.261265
30
-644.38885
11
-16.270187
21
-43.007263
31
-732.74384
12
84.40974
22
-12.0144005
32
-676.0118
13
84.409836
23
-12.0143
33
-676.01166
0
3DFACE
8
0
10
84.40974
20
-12.0144005
30
-676.0118
11
19.7639
21
36.254128
31
-587.65686
12
-80.91602
22
5.261265
32
-644.38885
13
-80.915924
23
5.261365
33
-644.38873
0
3DFACE
8
0
10
-169.6725
20
-99.19341
30
-766.6409
11
-129.63458
21
-129.08817
31
-821.3629
12
-129.63458
22
-64.05684
32
-856.8897
13
-129.63448
23
-64.05674
33
-856.8896
0
3DFACE
8
0
10
-129.63458
20
-64.05684
30
-856.8897
11
-169.6725
21
-34.162086
31
-802.1677
12
-169.6725
22
-99.19341
32
-766.6409
13
-169.6724
23
-99.19331
33
-766.6408
0
3DFACE
8
0
10
-67.27922
20
-109.89297
30
-786.2263
11
-107.31714
21
-79.998215
31
-731.50433
12
-107.31714
22
-14.966888
32
-767.0311
13
-107.31704
23
-14.966788
33
-767.031
0
3DFACE
8
0
10
-107.31714
20
-14.966888
30
-767.0311
11
-67.27922
21
-44.86164
31
-821.7531
12
-67.27922
22
-109.89297
32
-786.2263
13
-67.27912
23
-109.89287
33
-786.2262
0
3DFACE
8
0
10
-129.63458
20
-129.08817
30
-821.3629
11
-67.27922
21
-109.89297
31
-786.2263
12
-67.27922
22
-44.86164
32
-821.7531
13
-67.27912
23
-44.86154
33
-821.753
0
3DFACE
8
0
10
-67.27922
20
-44.86164
30
-821.7531
11
-129.63458
21
-64.05684
31
-856.8897
12
-129.63458
22
-129.08817
32
-821.3629
13
-129.63448
23
-129.08806
33
-821.3628
0
3DFACE
8
0
10
-107.31714
20
-79.998215
30
-731.50433
11
-169.6725
21
-99.19341
31
-766.6409
12
-169.6725
22
-34.162086
32
-802.1677
13
-169.6724
23
-34.161987
33
-802.1676
0
3DFACE
8
0
10
-169.6725
20
-34.162086
30
-802.1677
11
-107.31714
21
-14.966888
31
-767.0311
12
-107.31714
22
-79.998215
32
-731.50433
13
-107.31704
23
-79.998116
33
-731.5042
0
3DFACE
8
0
10
-107.31714
20
-79.998215
30
-731.50433
11
-67.27922
21
-109.89297
31
-786.2263
12
-129.63458
22
-129.08817
32
-821.3629
13
-129.63448
23
-129.08806
33
-821.3628
0
3DFACE
8
0
10
-129.63458
20
-129.08817
30
-821.3629
11
-169.6725
21
-99.19341
31
-766.6409
12
-107.31714
22
-79.998215
32
-731.50433
13
-107.31704
23
-79.998116
33
-731.5042
0
3DFACE
8
0
10
-169.6725
20
-34.162086
30
-802.1677
11
-129.63458
21
-64.05684
31
-856.8897
12
-67.27922
22
-44.86164
32
-821.7531
13
-67.27912
23
-44.86154
33
-821.753
0
3DFACE
8
0
10
-67.27922
20
-44.86164
30
-821.7531
11
-107.31714
21
-14.966888
31
-767.0311
12
-169.6725
22
-34.162086
32
-802.1677
13
-169.6724
23
-34.161987
33
-802.1676
0
3DFACE
8
0
10
-99.60019
20
1.0259552
30
-598.2544
11
-42.82733
21
-41.36412
31
-675.84894
12
-42.82733
22
50.848824
32
-726.2251
13
-42.827232
23
50.848923
33
-726.225
0
3DFACE
8
0
10
-42.82733
20
50.848824
30
-726.2251
11
-99.60019
21
93.23891
31
-648.63055
12
-99.60019
22
1.0259552
32
-598.2544
13
-99.60009
23
1.0260552
33
-598.2543
0
3DFACE
8
0
10
45.591156
20
-14.145763
30
-626.02606
11
-11.181702
21
28.244316
31
-548.4315
12
-11.181702
22
120.45726
32
-598.8077
13
-11.181602
23
120.45736
33
-598.80756
0
3DFACE
8
0
10
-11.181702
20
120.45726
30
-598.8077
11
45.591156
21
78.067184
31
-676.4022
12
45.591156
22
-14.145763
32
-626.02606
13
45.591255
23
-14.145663
33
-626.02594
0
3DFACE
8
0
10
-42.82733
20
-41.36412
30
-675.84894
11
45.591156
21
-14.145763
31
-626.02606
12
45.591156
22
78.067184
32
-676.4022
13
45.591255
23
78.06728
33
-676.4021
0
3DFACE
8
0
10
45.591156
20
78.067184
30
-676.4022
11
-42.82733
21
50.848824
31
-726.2251
12
-42.82733
22
-41.36412
32
-675.84894
13
-42.827232
23
-41.36402
33
-675.8488
0
3DFACE
8
0
10
-11.181702
20
28.244316
30
-548.4315
11
-99.60019
21
1.0259552
31
-598.2544
12
-99.60019
22
93.23891
32
-648.63055
13
-99.60009
23
93.239006
33
-648.63043
0
3DFACE
8
0
10
-99.60019
20
93.23891
30
-648.63055
11
-11.181702
21
120.45726
31
-598.8077
12
-11.181702
22
28.244316
32
-548.4315
13
-11.181602
23
28.244415
33
-548.4314
0
3DFACE
8
0
10
-11.181702
20
28.244316
30
-548.4315
11
45.591156
21
-14.145763
31
-626.02606
12
-42.82733
22
-41.36412
32
-675.84894
13
-42.827232
23
-41.36402
33
-675.8488
0
3DFACE
8
0
10
-42.82733
20
-41.36412
30
-675.84894
11
-99.60019
21
1.0259552
31
-598.2544
12
-11.181702
22
28.244316
32
-548.4315
13
-11.181602
23
28.244415
33
-548.4314
0
3DFACE
8
0
10
-99.60019
20
93.23891
30
-648.63055
11
-42.82733
21
50.848824
31
-726.2251
12
45.591156
22
78.067184
32
-676.4022
13
45.591255
23
78.06728
33
-676.4021
0
3DFACE
8
0
10
45.591156
20
78.067184
30
-676.4022
11
-11.181702
21
120.45726
31
-598.8077
12
-99.60019
22
93.23891
32
-648.63055
13
-99.60009
23
93.239006
33
-648.63043
0
3DFACE
8
0
10
-4.040001
20
4.310974
30
-660.04236
11
26.594925
21
-18.562931
31
-701.9127
12
26.594925
22
31.195648
32
-729.096
13
26.595024
23
31.195747
33
-729.0959
0
3DFACE
8
0
10
26.594925
20
31.195648
30
-729.096
11
-4.040001
21
54.069553
31
-687.2256
12
-4.040001
22
4.310974
32
-660.04236
13
-4.039901
23
4.3110743
33
-660.04224
0
3DFACE
8
0
10
74.30599
20
-3.8757668
30
-675.0281
11
43.671066
21
18.998138
31
-633.15765
12
43.671066
22
68.756714
32
-660.34094
13
43.671165
23
68.75681
33
-660.3408
0
3DFACE
8
0
10
43.671066
20
68.756714
30
-660.34094
11
74.30599
21
45.882812
31
-702.2113
12
74.30599
22
-3.8757668
32
-675.0281
13
74.30609
23
-3.8756669
33
-675.02795
0
3DFACE
8
0
10
26.594925
20
-18.562931
30
-701.9127
11
74.30599
21
-3.8757668
31
-675.0281
12
74.30599
22
45.882812
32
-702.2113
13
74.30609
23
45.88291
33
-702.2112
0
3DFACE
8
0
10
74.30599
20
45.882812
30
-702.2113
11
26.594925
21
31.195648
31
-729.096
12
26.594925
22
-18.562931
32
-701.9127
13
26.595024
23
-18.562832
33
-701.9126
0
3DFACE
8
0
10
43.671066
20
18.998138
30
-633.15765
11
-4.040001
21
4.310974
31
-660.04236
12
-4.040001
22
54.069553
32
-687.2256
13
-4.039901
23
54.069653
33
-687.22546
0
3DFACE
8
0
10
-4.040001
20
54.069553
30
-687.2256
11
43.671066
21
68.756714
31
-660.34094
12
43.671066
22
18.998138
32
-633.15765
13
43.671165
23
18.998238
33
-633.15753
0
3DFACE
8
0
10
43.671066
20
18.998138
30
-633.15765
11
74.30599
21
-3.8757668
31
-675.0281
12
26.594925
22
-18.562931
32
-701.9127
13
26.595024
23
-18.562832
33
-701.9126
0
3DFACE
8
0
10
26.594925
20
-18.562931
30
-701.9127
11
-4.040001
21
4.310974
31
-660.04236
12
43.671066
22
18.998138
32
-633.15765
13
43.671165
23
18.998238
33
-633.15753
0
3DFACE
8
0
10
-4.040001
20
54.069553
30
-687.2256
11
26.594925
21
31.195648
31
-729.096
12
74.30599
22
45.882812
32
-702.2113
13
74.30609
23
45.88291
33
-702.2112
0
3DFACE
8
0
10
74.30599
20
45.882812
30
-702.2113
11
43.671066
21
68.756714
31
-660.34094
12
-4.040001
22
54.069553
32
-687.2256
13
-4.039901
23
54.069653
33
-687.22546
0
3DFACE
8
0
10
-104.87351
20
-130.62466
30
-690.66693
11
-47.52717
21
-173.44293
31
-769.0453
12
-47.52717
22
-80.29851
32
-819.9303
13
-47.52707
23
-80.29841
33
-819.9302
0
3DFACE
8
0
10
-47.52717
20
-80.29851
30
-819.9303
11
-104.87351
21
-37.480232
31
-741.552
12
-104.87351
22
-130.62466
32
-690.66693
13
-104.87341
23
-130.62456
33
-690.6668
0
3DFACE
8
0
10
41.784462
20
-145.94965
30
-718.7191
11
-15.56188
21
-103.13136
31
-640.3408
12
-15.56188
22
-9.986931
32
-691.2258
13
-15.56178
23
-9.986831
33
-691.2257
0
3DFACE
8
0
10
-15.56188
20
-9.986931
30
-691.2258
11
41.784462
21
-52.805206
31
-769.6042
12
41.784462
22
-145.94965
32
-718.7191
13
41.78456
23
-145.94954
33
-718.719
0
3DFACE
8
0
10
-47.52717
20
-173.44293
30
-769.0453
11
41.784462
21
-145.94965
31
-718.7191
12
41.784462
22
-52.805206
32
-769.6042
13
41.78456
23
-52.805107
33
-769.60406
0
3DFACE
8
0
10
41.784462
20
-52.805206
30
-769.6042
11
-47.52717
21
-80.29851
31
-819.9303
12
-47.52717
22
-173.44293
32
-769.0453
13
-47.52707
23
-173.44283
33
-769.04517
0
3DFACE
8
0
10
-15.56188
20
-103.13136
30
-640.3408
11
-104.87351
21
-130.62466
31
-690.66693
12
-104.87351
22
-37.480232
32
-741.552
13
-104.87341
23
-37.480133
33
-741.5519
0
3DFACE
8
0
10
-104.87351
20
-37.480232
30
-741.552
11
-15.56188
21
-9.986931
31
-691.2258
12
-15.56188
22
-103.13136
32
-640.3408
13
-15.56178
23
-103.13126
33
-640.3407
0
3DFACE
8
0
10
-15.56188
20
-103.13136
30
-640.3408
11
41.784462
21
-145.94965
31
-718.7191
12
-47.52717
22
-173.44293
32
-769.0453
13
-47.52707
23
-173.44283
33
-769.04517
0
3DFACE
8
0
10
-47.52717
20
-173.44293
30
-769.0453
11
-104.87351
21
-130.62466
31
-690.66693
12
-15.56188
22
-103.13136
32
-640.3408
13
-15.56178
23
-103.13126
33
-640.3407
0
3DFACE
8
0
10
-104.87351
20
-37.480232
30
-741.552
11
-47.52717
21
-80.29851
31
-819.9303
12
41.784462
22
-52.805206
32
-769.6042
13
41.78456
23
-52.805107
33
-769.60406
0
3DFACE
8
0
10
41.784462
20
-52.805206
30
-769.6042
11
-15.56188
21
-9.986931
31
-691.2258
12
-104.87351
22
-37.480232
32
-741.552
13
-104.87341
23
-37.480133
33
-741.5519
0
3DFACE
8
0
10
3.0181847
20
-13.225307
30
-613.9474
11
20.566828
21
-26.328196
31
-637.932
12
20.566828
22
2.175076
32
-653.5034
13
20.566927
23
2.175176
33
-653.5033
0
3DFACE
8
0
10
20.566828
20
2.175076
30
-653.5034
11
3.0181847
21
15.277964
31
-629.51874
12
3.0181847
22
-13.225307
32
-613.9474
13
3.0182846
23
-13.225207
33
-613.94727
0
3DFACE
8
0
10
47.89722
20
-17.914927
30
-622.5317
11
30.348577
21
-4.812039
31
-598.547
12
30.348577
22
23.691233
32
-614.1184
13
30.348677
23
23.691332
33
-614.1183
0
3DFACE
8
0
10
30.348577
20
23.691233
30
-614.1184
11
47.89722
21
10.588345
31
-638.103
12
47.89722
22
-17.914927
32
-622.5317
13
47.89732
23
-17.914827
33
-622.53156
0
3DFACE
8
0
10
20.566828
20
-26.328196
30
-637.932
11
47.89722
21
-17.914927
31
-622.5317
12
47.89722
22
10.588345
32
-638.103
13
47.89732
23
10.588445
33
-638.1029
0
3DFACE
8
0
10
47.89722
20
10.588345
30
-638.103
11
20.566828
21
2.175076
31
-653.5034
12
20.566828
22
-26.328196
32
-637.932
13
20.566927
23
-26.328096
33
-637.9319
0
3DFACE
8
0
10
30.348577
20
-4.812039
30
-598.547
11
3.0181847
21
-13.225307
31
-613.9474
12
3.0181847
22
15.277964
32
-629.51874
13
3.0182846
23
15.278064
33
-629.5186
0
3DFACE
8
0
10
3.0181847
20
15.277964
30
-629.51874
11
30.348577
21
23.691233
31
-614.1184
12
30.348577
22
-4.812039
32
-598.547
13
30.348677
23
-4.811939
33
-598.5469
0
3DFACE
8
0
10
30.348577
20
-4.812039
30
-598.547
11
47.89722
21
-17.914927
31
-622.5317
12
20.566828
22
-26.328196
32
-637.932
13
20.566927
23
-26.328096
33
-637.9319
0
3DFACE
8
0
10
20.566828
20
-26.328196
30
-637.932
11
3.0181847
21
-13.225307
31
-613.9474
12
30.348577
22
-4.812039
32
-598.547
13
30.348677
23
-4.811939
33
-598.5469
0
3DFACE
8
0
10
3.0181847
20
15.277964
30
-629.51874
11
20.566828
21
2.175076
31
-653.5034
12
47.89722
22
10.588345
32
-638.103
13
47.89732
23
10.588445
33
-638.1029
0
3DFACE
8
0
10
47.89722
20
10.588345
30
-638.103
11
30.348577
21
23.691233
31
-614.1184
12
3.0181847
22
15.277964
32
-629.51874
13
3.0182846
23
15.278064
33
-629.5186
0
ENDSEC
0
EOF
