0
SECTION
2
ENTITIES
0
3DFACE
8
0
10
-58.49408
20
8.374176
30
-828.01154
11
86.50592
21
8.374176
31
-828.01154
12
86.50592
22
153.37418
32
-828.01154
13
86.50602
23
153.37428
33
-828.0114
0
3DFACE
8
0
10
86.50592
20
153.37418
30
-828.01154
11
-58.49408
21
153.37418
31
-828.01154
12
-58.49408
22
8.374176
32
-828.01154
13
-58.49398
23
8.374276
33
-828.0114
0
3DFACE
8
0
10
86.50592
20
8.374176
30
-683.01154
11
-58.49408
21
8.374176
31
-683.01154
12
-58.49408
22
153.37418
32
-683.01154
13
-58.49398
23
153.37428
33
-683.0114
0
3DFACE
8
0
10
-58.49408
20
153.37418
30
-683.01154
11
86.50592
21
153.37418
31
-683.01154
12
86.50592
22
8.374176
32
-683.01154
13
86.50602
23
8.374276
33
-683.0114
0
3DFACE
8
0
10
86.50592
20
8.374176
30
-828.01154
11
86.50592
21
8.374176
31
-683.01154
12
86.50592
22
153.37418
32
-683.01154
13
86.50602
23
153.37428
33
-683.0114
0
3DFACE
8
0
10
86.50592
20
153.37418
30
-683.01154
11
86.50592
21
153.37418
31
-828.01154
12
86.50592
22
8.374176
32
-828.01154
13
86.50602
23
8.374276
33
-828.0114
0
3DFACE
8
0
10
-58.49408
20
8.374176
30
-683.01154
11
-58.49408
21
8.374176
31
-828.01154
12
-58.49408
22
153.37418
32
-828.01154
13
-58.49398
23
153.37428
33
-828.0114
0
3DFACE
8
0
10
-58.49408
20
153.37418
30
-828.01154
11
-58.49408
21
153.37418
31
-683.01154
12
-58.49408
22
8.374176
32
-683.01154
13
-58.49398
23
8.374276
33
-683.0114
0
3DFACE
8
0
10
-58.49408
20
8.374176
30
-683.01154
11
86.50592
21
8.374176
31
-683.01154
12
86.50592
22
8.374176
32
-828.01154
13
86.50602
23
8.374276
33
-828.0114
0
3DFACE
8
0
10
86.50592
20
8.374176
30
-828.01154
11
-58.49408
21
8.374176
31
-828.01154
12
-58.49408
22
8.374176
32
-683.01154
13
-58.49398
23
8.374276
33
-683.0114
0
3DFACE
8
0
10
-58.49408
20
153.37418
30
-828.01154
11
86.50592
21
153.37418
31
-828.01154
12
86.50592
22
153.37418
32
-683.01154
13
86.50602
23
153.37428
33
-683.0114
0
3DFACE
8
0
10
86.50592
20
153.37418
30
-683.01154
11
-58.49408
21
153.37418
31
-683.01154
12
-58.49408
22
153.37418
32
-828.01154
13
-58.49398
23
153.37428
33
-828.0114
0
3DFACE
8
0
10
-82.14856
20
3.3706665
30
-810.3772
11
50.85144
21
3.3706665
31
-810.3772
12
50.85144
22
136.37067
32
-810.3772
13
50.85154
23
136.37077
33
-810.3771
0
3DFACE
8
0
10
50.85144
20
136.37067
30
-810.3772
11
-82.14856
21
136.37067
31
-810.3772
12
-82.14856
22
3.3706665
32
-810.3772
13
-82.14846
23
3.3707664
33
-810.3771
0
3DFACE
8
0
10
50.85144
20
3.3706665
30
-677.3772
11
-82.14856
21
3.3706665
31
-677.3772
12
-82.14856
22
136.37067
32
-677.3772
13
-82.14846
23
136.37077
33
-677.3771
0
3DFACE
8
0
10
-82.14856
20
136.37067
30
-677.3772
11
50.85144
21
136.37067
31
-677.3772
12
50.85144
22
3.3706665
32
-677.3772
13
50.85154
23
3.3707664
33
-677.3771
0
3DFACE
8
0
10
50.85144
20
3.3706665
30
-810.3772
11
50.85144
21
3.3706665
31
-677.3772
12
50.85144
22
136.37067
32
-677.3772
13
50.85154
23
136.37077
33
-677.3771
0
3DFACE
8
0
10
50.85144
20
136.37067
30
-677.3772
11
50.85144
21
136.37067
31
-810.3772
12
50.85144
22
3.3706665
32
-810.3772
13
50.85154
23
3.3707664
33
-810.3771
0
3DFACE
8
0
10
-82.14856
20
3.3706665
30
-677.3772
11
-82.14856
21
3.3706665
31
-810.3772
12
-82.14856
22
136.37067
32
-810.3772
13
-82.14846
23
136.37077
33
-810.3771
0
3DFACE
8
0
10
-82.14856
20
136.37067
30
-810.3772
11
-82.14856
21
136.37067
31
-677.3772
12
-82.14856
22
3.3706665
32
-677.3772
13
-82.14846
23
3.3707664
33
-677.3771
0
3DFACE
8
0
10
-82.14856
20
3.3706665
30
-677.3772
11
50.85144
21
3.3706665
31
-677.3772
12
50.85144
22
3.3706665
32
-810.3772
13
50.85154
23
3.3707664
33
-810.3771
0
3DFACE
8
0
10
50.85144
20
3.3706665
30
-810.3772
11
-82.14856
21
3.3706665
31
-810.3772
12
-82.14856
22
3.3706665
32
-677.3772
13
-82.14846
23
3.3707664
33
-677.3771
0
3DFACE
8
0
10
-82.14856
20
136.37067
30
-810.3772
11
50.85144
21
136.37067
31
-810.3772
12
50.85144
22
136.37067
32
-677.3772
13
50.85154
23
136.37077
33
-677.3771
0
3DFACE
8
0
10
50.85144
20
136.37067
30
-677.3772
11
-82.14856
21
136.37067
31
-677.3772
12
-82.14856
22
136.37067
32
-810.3772
13
-82.14846
23
136.37077
33
-810.3771
0
3DFACE
8
0
10
-20.79358
20
-14.237305
30
-700.33295
11
24.20642
21
-14.237305
31
-700.33295
12
24.20642
22
30.762695
32
-700.33295
13
24.20652
23
30.762794
33
-700.3328
0
3DFACE
8
0
10
24.20642
20
30.762695
30
-700.33295
11
-20.79358
21
30.762695
31
-700.33295
12
-20.79358
22
-14.237305
32
-700.33295
13
-20.79348
23
-14.237205
33
-700.3328
0
3DFACE
8
0
10
24.20642
20
-14.237305
30
-655.33295
11
-20.79358
21
-14.237305
31
-655.33295
12
-20.79358
22
30.762695
32
-655.33295
13
-20.79348
23
30.762794
33
-655.3328
0
3DFACE
8
0
10
-20.79358
20
30.762695
30
-655.33295
11
24.20642
21
30.762695
31
-655.33295
12
24.20642
22
-14.237305
32
-655.33295
13
24.20652
23
-14.237205
33
-655.3328
0
3DFACE
8
0
10
24.20642
20
-14.237305
30
-700.33295
11
24.20642
21
-14.237305
31
-655.33295
12
24.20642
22
30.762695
32
-655.33295
13
24.20652
23
30.762794
33
-655.3328
0
3DFACE
8
0
10
24.20642
20
30.762695
30
-655.33295
11
24.20642
21
30.762695
31
-700.33295
12
24.20642
22
-14.237305
32
-700.33295
13
24.20652
23
-14.237205
33
-700.3328
0
3DFACE
8
0
10
-20.79358
20
-14.237305
30
-655.33295
11
-20.79358
21
-14.237305
31
-700.33295
12
-20.79358
22
30.762695
32
-700.33295
13
-20.79348
23
30.762794
33
-700.3328
0
3DFACE
8
0
10
-20.79358
20
30.762695
30
-700.33295
11
-20.79358
21
30.762695
31
-655.33295
12
-20.79358
22
-14.237305
32
-655.33295
13
-20.79348
23
-14.237205
33
-655.3328
0
3DFACE
8
0
10
-20.79358
20
-14.237305
30
-655.33295
11
24.20642
21
-14.237305
31
-655.33295
12
24.20642
22
-14.237305
32
-700.33295
13
24.20652
23
-14.237205
33
-700.3328
0
3DFACE
8
0
10
24.20642
20
-14.237305
30
-700.33295
11
-20.79358
21
-14.237305
31
-700.33295
12
-20.79358
22
-14.237305
32
-655.33295
13
-20.79348
23
-14.237205
33
-655.3328
0
3DFACE
8
0
10
-20.79358
20
30.762695
30
-700.33295
11
24.20642
21
30.762695
31
-700.33295
12
24.20642
22
30.762695
32
-655.33295
13
24.20652
23
30.762794
33
-655.3328
0
3DFACE
8
0
10
24.20642
20
30.762695
30
-655.33295
11
-20.79358
21
30.762695
31
-655.33295
12
-20.79358
22
30.762695
32
-700.33295
13
-20.79348
23
30.762794
33
-700.3328
0
3DFACE
8
0
10
77.897156
20
-43.470154
30
-682.154
11
106.897156
21
-43.470154
31
-682.154
12
106.897156
22
-14.470154
32
-682.154
13
106.897255
23
-14.470054
33
-682.1539
0
3DFACE
8
0
10
106.897156
20
-14.470154
30
-682.154
11
77.897156
21
-14.470154
31
-682.154
12
77.897156
22
-43.470154
32
-682.154
13
77.897255
23
-43.470055
33
-682.1539
0
3DFACE
8
0
10
106.897156
20
-43.470154
30
-653.154
11
77.897156
21
-43.470154
31
-653.154
12
77.897156
22
-14.470154
32
-653.154
13
77.897255
23
-14.470054
33
-653.1539
0
3DFACE
8
0
10
77.897156
20
-14.470154
30
-653.154
11
106.897156
21
-14.470154
31
-653.154
12
106.897156
22
-43.470154
32
-653.154
13
106.897255
23
-43.470055
33
-653.1539
0
3DFACE
8
0
10
106.897156
20
-43.470154
30
-682.154
11
106.897156
21
-43.470154
31
-653.154
12
106.897156
22
-14.470154
32
-653.154
13
106.897255
23
-14.470054
33
-653.1539
0
3DFACE
8
0
10
106.897156
20
-14.470154
30
-653.154
11
106.897156
21
-14.470154
31
-682.154
12
106.897156
22
-43.470154
32
-682.154
13
106.897255
23
-43.470055
33
-682.1539
0
3DFACE
8
0
10
77.897156
20
-43.470154
30
-653.154
11
77.897156
21
-43.470154
31
-682.154
12
77.897156
22
-14.470154
32
-682.154
13
77.897255
23
-14.470054
33
-682.1539
0
3DFACE
8
0
10
77.897156
20
-14.470154
30
-682.154
11
77.897156
21
-14.470154
31
-653.154
12
77.897156
22
-43.470154
32
-653.154
13
77.897255
23
-43.470055
33
-653.1539
0
3DFACE
8
0
10
77.897156
20
-43.470154
30
-653.154
11
106.897156
21
-43.470154
31
-653.154
12
106.897156
22
-43.470154
32
-682.154
13
106.897255
23
-43.470055
33
-682.1539
0
3DFACE
8
0
10
106.897156
20
-43.470154
30
-682.154
11
77.897156
21
-43.470154
31
-682.154
12
77.897156
22
-43.470154
32
-653.154
13
77.897255
23
-43.470055
33
-653.1539
0
3DFACE
8
0
10
77.897156
20
-14.470154
30
-682.154
11
106.897156
21
-14.470154
31
-682.154
12
106.897156
22
-14.470154
32
-653.154
13
106.897255
23
-14.470054
33
-653.1539
0
3DFACE
8
0
10
106.897156
20
-14.470154
30
-653.154
11
77.897156
21
-14.470154
31
-653.154
12
77.897156
22
-14.470154
32
-682.154
13
77.897255
23
-14.470054
33
-682.1539
0
3DFACE
8
0
10
8.149261
20
65.432495
30
-631.15234
11
8.149261
21
65.432495
31
-631.15234
12
8.149261
22
65.432495
32
-631.15234
13
8.149362
23
65.432594
33
-631.1522
0
3DFACE
8
0
10
8.149261
20
65.432495
30
-631.15234
11
8.149261
21
65.432495
31
-631.15234
12
8.149261
22
65.432495
32
-631.15234
13
8.149362
23
65.432594
33
-631.1522
0
3DFACE
8
0
10
8.149261
20
65.432495
30
-631.15234
11
8.149261
21
65.432495
31
-631.15234
12
8.149261
22
65.432495
32
-631.15234
13
8.149362
23
65.432594
33
-631.1522
0
3DFACE
8
0
10
8.149261
20
65.432495
30
-631.15234
11
8.149261
21
65.432495
31
-631.15234
12
8.149261
22
65.432495
32
-631.15234
13
8.149362
23
65.432594
33
-631.1522
0
3DFACE
8
0
10
8.149261
20
65.432495
30
-631.15234
11
8.149261
21
65.432495
31
-631.15234
12
8.149261
22
65.432495
32
-631.15234
13
8.149362
23
65.432594
33
-631.1522
0
3DFACE
8
0
10
8.149261
20
65.432495
30
-631.15234
11
8.149261
21
65.432495
31
-631.15234
12
8.149261
22
65.432495
32
-631.15234
13
8.149362
23
65.432594
33
-631.1522
0
3DFACE
8
0
10
8.149261
20
65.432495
30
-631.15234
11
8.149261
21
65.432495
31
-631.15234
12
8.149261
22
65.432495
32
-631.15234
13
8.149362
23
65.432594
33
-631.1522
0
3DFACE
8
0
10
8.149261
20
65.432495
30
-631.15234
11
8.149261
21
65.432495
31
-631.15234
12
8.149261
22
65.432495
32
-631.15234
13
8.149362
23
65.432594
33
-631.1522
0
3DFACE
8
0
10
8.149261
20
65.432495
30
-631.15234
11
8.149261
21
65.432495
31
-631.15234
12
8.149261
22
65.432495
32
-631.15234
13
8.149362
23
65.432594
33
-631.1522
0
3DFACE
8
0
10
8.149261
20
65.432495
30
-631.15234
11
8.149261
21
65.432495
31
-631.15234
12
8.149261
22
65.432495
32
-631.15234
13
8.149362
23
65.432594
33
-631.1522
0
3DFACE
8
0
10
8.149261
20
65.432495
30
-631.15234
11
8.149261
21
65.432495
31
-631.15234
12
8.149261
22
65.432495
32
-631.15234
13
8.149362
23
65.432594
33
-631.1522
0
3DFACE
8
0
10
8.149261
20
65.432495
30
-631.15234
11
8.149261
21
65.432495
31
-631.15234
12
8.149261
22
65.432495
32
-631.15234
13
8.149362
23
65.432594
33
-631.1522
0
3DFACE
8
0
10
36.010986
20
-43.547424
30
-672.92236
11
148.01099
21
-43.547424
31
-672.92236
12
148.01099
22
68.452576
32
-672.92236
13
148.0111
23
68.452675
33
-672.92224
0
3DFACE
8
0
10
148.01099
20
68.452576
30
-672.92236
11
36.010986
21
68.452576
31
-672.92236
12
36.010986
22
-43.547424
32
-672.92236
13
36.011086
23
-43.547325
33
-672.92224
0
3DFACE
8
0
10
148.01099
20
-43.547424
30
-560.92236
11
36.010986
21
-43.547424
31
-560.92236
12
36.010986
22
68.452576
32
-560.92236
13
36.011086
23
68.452675
33
-560.92224
0
3DFACE
8
0
10
36.010986
20
68.452576
30
-560.92236
11
148.01099
21
68.452576
31
-560.92236
12
148.01099
22
-43.547424
32
-560.92236
13
148.0111
23
-43.547325
33
-560.92224
0
3DFACE
8
0
10
148.01099
20
-43.547424
30
-672.92236
11
148.01099
21
-43.547424
31
-560.92236
12
148.01099
22
68.452576
32
-560.92236
13
148.0111
23
68.452675
33
-560.92224
0
3DFACE
8
0
10
148.01099
20
68.452576
30
-560.92236
11
148.01099
21
68.452576
31
-672.92236
12
148.01099
22
-43.547424
32
-672.92236
13
148.0111
23
-43.547325
33
-672.92224
0
3DFACE
8
0
10
36.010986
20
-43.547424
30
-560.92236
11
36.010986
21
-43.547424
31
-672.92236
12
36.010986
22
68.452576
32
-672.92236
13
36.011086
23
68.452675
33
-672.92224
0
3DFACE
8
0
10
36.010986
20
68.452576
30
-672.92236
11
36.010986
21
68.452576
31
-560.92236
12
36.010986
22
-43.547424
32
-560.92236
13
36.011086
23
-43.547325
33
-560.92224
0
3DFACE
8
0
10
36.010986
20
-43.547424
30
-560.92236
11
148.01099
21
-43.547424
31
-560.92236
12
148.01099
22
-43.547424
32
-672.92236
13
148.0111
23
-43.547325
33
-672.92224
0
3DFACE
8
0
10
148.01099
20
-43.547424
30
-672.92236
11
36.010986
21
-43.547424
31
-672.92236
12
36.010986
22
-43.547424
32
-560.92236
13
36.011086
23
-43.547325
33
-560.92224
0
3DFACE
8
0
10
36.010986
20
68.452576
30
-672.92236
11
148.01099
21
68.452576
31
-672.92236
12
148.01099
22
68.452576
32
-560.92236
13
148.0111
23
68.452675
33
-560.92224
0
3DFACE
8
0
10
148.01099
20
68.452576
30
-560.92236
11
36.010986
21
68.452576
31
-560.92236
12
36.010986
22
68.452576
32
-672.92236
13
36.011086
23
68.452675
33
-672.92224
0
3DFACE
8
0
10
71.78363
20
-1.9386597
30
-731.211
11
126.78363
21
-1.9386597
31
-731.211
12
126.78363
22
53.06134
32
-731.211
13
126.78373
23
53.06144
33
-731.2109
0
3DFACE
8
0
10
126.78363
20
53.06134
30
-731.211
11
71.78363
21
53.06134
31
-731.211
12
71.78363
22
-1.9386597
32
-731.211
13
71.78373
23
-1.9385597
33
-731.2109
0
3DFACE
8
0
10
126.78363
20
-1.9386597
30
-676.211
11
71.78363
21
-1.9386597
31
-676.211
12
71.78363
22
53.06134
32
-676.211
13
71.78373
23
53.06144
33
-676.2109
0
3DFACE
8
0
10
71.78363
20
53.06134
30
-676.211
11
126.78363
21
53.06134
31
-676.211
12
126.78363
22
-1.9386597
32
-676.211
13
126.78373
23
-1.9385597
33
-676.2109
0
3DFACE
8
0
10
126.78363
20
-1.9386597
30
-731.211
11
126.78363
21
-1.9386597
31
-676.211
12
126.78363
22
53.06134
32
-676.211
13
126.78373
23
53.06144
33
-676.2109
0
3DFACE
8
0
10
126.78363
20
53.06134
30
-676.211
11
126.78363
21
53.06134
31
-731.211
12
126.78363
22
-1.9386597
32
-731.211
13
126.78373
23
-1.9385597
33
-731.2109
0
3DFACE
8
0
10
71.78363
20
-1.9386597
30
-676.211
11
71.78363
21
-1.9386597
31
-731.211
12
71.78363
22
53.06134
32
-731.211
13
71.78373
23
53.06144
33
-731.2109
0
3DFACE
8
0
10
71.78363
20
53.06134
30
-731.211
11
71.78363
21
53.06134
31
-676.211
12
71.78363
22
-1.9386597
32
-676.211
13
71.78373
23
-1.9385597
33
-676.2109
0
3DFACE
8
0
10
71.78363
20
-1.9386597
30
-676.211
11
126.78363
21
-1.9386597
31
-676.211
12
126.78363
22
-1.9386597
32
-731.211
13
126.78373
23
-1.9385597
33
-731.2109
0
3DFACE
8
0
10
126.78363
20
-1.9386597
30
-731.211
11
71.78363
21
-1.9386597
31
-731.211
12
71.78363
22
-1.9386597
32
-676.211
13
71.78373
23
-1.9385597
33
-676.2109
0
3DFACE
8
0
10
71.78363
20
53.06134
30
-731.211
11
126.78363
21
53.06134
31
-731.211
12
126.78363
22
53.06134
32
-676.211
13
126.78373
23
53.06144
33
-676.2109
0
3DFACE
8
0
10
126.78363
20
53.06134
30
-676.211
11
71.78363
21
53.06134
31
-676.211
12
71.78363
22
53.06134
32
-731.211
13
71.78373
23
53.06144
33
-731.2109
0
3DFACE
8
0
10
-60.32843
20
-74.69763
30
-813.5898
11
51.67157
21
-74.69763
31
-813.5898
12
51.67157
22
37.30237
32
-813.5898
13
51.67167
23
37.302467
33
-813.58966
0
3DFACE
8
0
10
51.67157
20
37.30237
30
-813.5898
11
-60.32843
21
37.30237
31
-813.5898
12
-60.32843
22
-74.69763
32
-813.5898
13
-60.32833
23
-74.69753
33
-813.58966
0
3DFACE
8
0
10
51.67157
20
-74.69763
30
-701.5898
11
-60.32843
21
-74.69763
31
-701.5898
12
-60.32843
22
37.30237
32
-701.5898
13
-60.32833
23
37.302467
33
-701.58966
0
3DFACE
8
0
10
-60.32843
20
37.30237
30
-701.5898
11
51.67157
21
37.30237
31
-701.5898
12
51.67157
22
-74.69763
32
-701.5898
13
51.67167
23
-74.69753
33
-701.58966
0
3DFACE
8
0
10
51.67157
20
-74.69763
30
-813.5898
11
51.67157
21
-74.69763
31
-701.5898
12
51.67157
22
37.30237
32
-701.5898
13
51.67167
23
37.302467
33
-701.58966
0
3DFACE
8
0
10
51.67157
20
37.30237
30
-701.5898
11
51.67157
21
37.30237
31
-813.5898
12
51.67157
22
-74.69763
32
-813.5898
13
51.67167
23
-74.69753
33
-813.58966
0
3DFACE
8
0
10
-60.32843
20
-74.69763
30
-701.5898
11
-60.32843
21
-74.69763
31
-813.5898
12
-60.32843
22
37.30237
32
-813.5898
13
-60.32833
23
37.302467
33
-813.58966
0
3DFACE
8
0
10
-60.32843
20
37.30237
30
-813.5898
11
-60.32843
21
37.30237
31
-701.5898
12
-60.32843
22
-74.69763
32
-701.5898
13
-60.32833
23
-74.69753
33
-701.58966
0
3DFACE
8
0
10
-60.32843
20
-74.69763
30
-701.5898
11
51.67157
21
-74.69763
31
-701.5898
12
51.67157
22
-74.69763
32
-813.5898
13
51.67167
23
-74.69753
33
-813.58966
0
3DFACE
8
0
10
51.67157
20
-74.69763
30
-813.5898
11
-60.32843
21
-74.69763
31
-813.5898
12
-60.32843
22
-74.69763
32
-701.5898
13
-60.32833
23
-74.69753
33
-701.58966
0
3DFACE
8
0
10
-60.32843
20
37.30237
30
-813.5898
11
51.67157
21
37.30237
31
-813.5898
12
51.67157
22
37.30237
32
-701.5898
13
51.67167
23
37.302467
33
-701.58966
0
3DFACE
8
0
10
51.67157
20
37.30237
30
-701.5898
11
-60.32843
21
37.30237
31
-701.5898
12
-60.32843
22
37.30237
32
-813.5898
13
-60.32833
23
37.302467
33
-813.58966
0
3DFACE
8
0
10
-122.71228
20
-108.09927
30
-811.78375
11
-67.71228
21
-108.09927
31
-811.78375
12
-67.71228
22
-53.099274
32
-811.78375
13
-67.71218
23
-53.099174
33
-811.7836
0
3DFACE
8
0
10
-67.71228
20
-53.099274
30
-811.78375
11
-122.71228
21
-53.099274
31
-811.78375
12
-122.71228
22
-108.09927
32
-811.78375
13
-122.71218
23
-108.099174
33
-811.7836
0
3DFACE
8
0
10
-67.71228
20
-108.09927
30
-756.78375
11
-122.71228
21
-108.09927
31
-756.78375
12
-122.71228
22
-53.099274
32
-756.78375
13
-122.71218
23
-53.099174
33
-756.7836
0
3DFACE
8
0
10
-122.71228
20
-53.099274
30
-756.78375
11
-67.71228
21
-53.099274
31
-756.78375
12
-67.71228
22
-108.09927
32
-756.78375
13
-67.71218
23
-108.099174
33
-756.7836
0
3DFACE
8
0
10
-67.71228
20
-108.09927
30
-811.78375
11
-67.71228
21
-108.09927
31
-756.78375
12
-67.71228
22
-53.099274
32
-756.78375
13
-67.71218
23
-53.099174
33
-756.7836
0
3DFACE
8
0
10
-67.71228
20
-53.099274
30
-756.78375
11
-67.71228
21
-53.099274
31
-811.78375
12
-67.71228
22
-108.09927
32
-811.78375
13
-67.71218
23
-108.099174
33
-811.7836
0
3DFACE
8
0
10
-122.71228
20
-108.09927
30
-756.78375
11
-122.71228
21
-108.09927
31
-811.78375
12
-122.71228
22
-53.099274
32
-811.78375
13
-122.71218
23
-53.099174
33
-811.7836
0
3DFACE
8
0
10
-122.71228
20
-53.099274
30
-811.78375
11
-122.71228
21
-53.099274
31
-756.78375
12
-122.71228
22
-108.09927
32
-756.78375
13
-122.71218
23
-108.099174
33
-756.7836
0
3DFACE
8
0
10
-122.71228
20
-108.09927
30
-756.78375
11
-67.71228
21
-108.09927
31
-756.78375
12
-67.71228
22
-108.09927
32
-811.78375
13
-67.71218
23
-108.099174
33
-811.7836
0
3DFACE
8
0
10
-67.71228
20
-108.09927
30
-811.78375
11
-122.71228
21
-108.09927
31
-811.78375
12
-122.71228
22
-108.09927
32
-756.78375
13
-122.71218
23
-108.099174
33
-756.7836
0
3DFACE
8
0
10
-122.71228
20
-53.099274
30
-811.78375
11
-67.71228
21
-53.099274
31
-811.78375
12
-67.71228
22
-53.099274
32
-756.78375
13
-67.71218
23
-53.099174
33
-756.7836
0
3DFACE
8
0
10
-67.71228
20
-53.099274
30
-756.78375
11
-122.71228
21
-53.099274
31
-756.78375
12
-122.71228
22
-53.099274
32
-811.78375
13
-122.71218
23
-53.099174
33
-811.7836
0
3DFACE
8
0
10
39.309692
20
-96.37036
30
-742.9124
11
132.3097
21
-96.37036
31
-742.9124
12
132.3097
22
-3.3703613
32
-742.9124
13
132.3098
23
-3.3702614
33
-742.9123
0
3DFACE
8
0
10
132.3097
20
-3.3703613
30
-742.9124
11
39.309692
21
-3.3703613
31
-742.9124
12
39.309692
22
-96.37036
32
-742.9124
13
39.30979
23
-96.37026
33
-742.9123
0
3DFACE
8
0
10
132.3097
20
-96.37036
30
-649.9124
11
39.309692
21
-96.37036
31
-649.9124
12
39.309692
22
-3.3703613
32
-649.9124
13
39.30979
23
-3.3702614
33
-649.9123
0
3DFACE
8
0
10
39.309692
20
-3.3703613
30
-649.9124
11
132.3097
21
-3.3703613
31
-649.9124
12
132.3097
22
-96.37036
32
-649.9124
13
132.3098
23
-96.37026
33
-649.9123
0
3DFACE
8
0
10
132.3097
20
-96.37036
30
-742.9124
11
132.3097
21
-96.37036
31
-649.9124
12
132.3097
22
-3.3703613
32
-649.9124
13
132.3098
23
-3.3702614
33
-649.9123
0
3DFACE
8
0
10
132.3097
20
-3.3703613
30
-649.9124
11
132.3097
21
-3.3703613
31
-742.9124
12
132.3097
22
-96.37036
32
-742.9124
13
132.3098
23
-96.37026
33
-742.9123
0
3DFACE
8
0
10
39.309692
20
-96.37036
30
-649.9124
11
39.309692
21
-96.37036
31
-742.9124
12
39.309692
22
-3.3703613
32
-742.9124
13
39.30979
23
-3.3702614
33
-742.9123
0
3DFACE
8
0
10
39.309692
20
-3.3703613
30
-742.9124
11
39.309692
21
-3.3703613
31
-649.9124
12
39.309692
22
-96.37036
32
-649.9124
13
39.30979
23
-96.37026
33
-649.9123
0
3DFACE
8
0
10
39.309692
20
-96.37036
30
-649.9124
11
132.3097
21
-96.37036
31
-649.9124
12
132.3097
22
-96.37036
32
-742.9124
13
132.3098
23
-96.37026
33
-742.9123
0
3DFACE
8
0
10
132.3097
20
-96.37036
30
-742.9124
11
39.309692
21
-96.37036
31
-742.9124
12
39.309692
22
-96.37036
32
-649.9124
13
39.30979
23
-96.37026
33
-649.9123
0
3DFACE
8
0
10
39.309692
20
-3.3703613
30
-742.9124
11
132.3097
21
-3.3703613
31
-742.9124
12
132.3097
22
-3.3703613
32
-649.9124
13
132.3098
23
-3.3702614
33
-649.9123
0
3DFACE
8
0
10
132.3097
20
-3.3703613
30
-649.9124
11
39.309692
21
-3.3703613
31
-649.9124
12
39.309692
22
-3.3703613
32
-742.9124
13
39.30979
23
-3.3702614
33
-742.9123
0
3DFACE
8
0
10
7.210205
20
-24.325073
30
-789.5986
11
40.210205
21
-24.325073
31
-789.5986
12
40.210205
22
8.674927
32
-789.5986
13
40.210304
23
8.675027
33
-789.59845
0
3DFACE
8
0
10
40.210205
20
8.674927
30
-789.5986
11
7.210205
21
8.674927
31
-789.5986
12
7.210205
22
-24.325073
32
-789.5986
13
7.210305
23
-24.324974
33
-789.59845
0
3DFACE
8
0
10
40.210205
20
-24.325073
30
-756.5986
11
7.210205
21
-24.325073
31
-756.5986
12
7.210205
22
8.674927
32
-756.5986
13
7.210305
23
8.675027
33
-756.59845
0
3DFACE
8
0
10
7.210205
20
8.674927
30
-756.5986
11
40.210205
21
8.674927
31
-756.5986
12
40.210205
22
-24.325073
32
-756.5986
13
40.210304
23
-24.324974
33
-756.59845
0
3DFACE
8
0
10
40.210205
20
-24.325073
30
-789.5986
11
40.210205
21
-24.325073
31
-756.5986
12
40.210205
22
8.674927
32
-756.5986
13
40.210304
23
8.675027
33
-756.59845
0
3DFACE
8
0
10
40.210205
20
8.674927
30
-756.5986
11
40.210205
21
8.674927
31
-789.5986
12
40.210205
22
-24.325073
32
-789.5986
13
40.210304
23
-24.324974
33
-789.59845
0
3DFACE
8
0
10
7.210205
20
-24.325073
30
-756.5986
11
7.210205
21
-24.325073
31
-789.5986
12
7.210205
22
8.674927
32
-789.5986
13
7.210305
23
8.675027
33
-789.59845
0
3DFACE
8
0
10
7.210205
20
8.674927
30
-789.5986
11
7.210205
21
8.674927
31
-756.5986
12
7.210205
22
-24.325073
32
-756.5986
13
7.210305
23
-24.324974
33
-756.59845
0
3DFACE
8
0
10
7.210205
20
-24.325073
30
-756.5986
11
40.210205
21
-24.325073
31
-756.5986
12
40.210205
22
-24.325073
32
-789.5986
13
40.210304
23
-24.324974
33
-789.59845
0
3DFACE
8
0
10
40.210205
20
-24.325073
30
-789.5986
11
7.210205
21
-24.325073
31
-789.5986
12
7.210205
22
-24.325073
32
-756.5986
13
7.210305
23
-24.324974
33
-756.59845
0
3DFACE
8
0
10
7.210205
20
8.674927
30
-789.5986
11
40.210205
21
8.674927
31
-789.5986
12
40.210205
22
8.674927
32
-756.5986
13
40.210304
23
8.675027
33
-756.59845
0
3DFACE
8
0
10
40.210205
20
8.674927
30
-756.5986
11
7.210205
21
8.674927
31
-756.5986
12
7.210205
22
8.674927
32
-789.5986
13
7.210305
23
8.675027
33
-789.59845
0
3DFACE
8
0
10
25.393616
20
-6.489807
30
-641.31714
11
120.393616
21
-6.489807
31
-641.31714
12
120.393616
22
88.51019
32
-641.31714
13
120.393715
23
88.51029
33
-641.317
0
3DFACE
8
0
10
120.393616
20
88.51019
30
-641.31714
11
25.393616
21
88.51019
31
-641.31714
12
25.393616
22
-6.489807
32
-641.31714
13
25.393715
23
-6.489707
33
-641.317
0
3DFACE
8
0
10
120.393616
20
-6.489807
30
-546.31714
11
25.393616
21
-6.489807
31
-546.31714
12
25.393616
22
88.51019
32
-546.31714
13
25.393715
23
88.51029
33
-546.317
0
3DFACE
8
0
10
25.393616
20
88.51019
30
-546.31714
11
120.393616
21
88.51019
31
-546.31714
12
120.393616
22
-6.489807
32
-546.31714
13
120.393715
23
-6.489707
33
-546.317
0
3DFACE
8
0
10
120.393616
20
-6.489807
30
-641.31714
11
120.393616
21
-6.489807
31
-546.31714
12
120.393616
22
88.51019
32
-546.31714
13
120.393715
23
88.51029
33
-546.317
0
3DFACE
8
0
10
120.393616
20
88.51019
30
-546.31714
11
120.393616
21
88.51019
31
-641.31714
12
120.393616
22
-6.489807
32
-641.31714
13
120.393715
23
-6.489707
33
-641.317
0
3DFACE
8
0
10
25.393616
20
-6.489807
30
-546.31714
11
25.393616
21
-6.489807
31
-641.31714
12
25.393616
22
88.51019
32
-641.31714
13
25.393715
23
88.51029
33
-641.317
0
3DFACE
8
0
10
25.393616
20
88.51019
30
-641.31714
11
25.393616
21
88.51019
31
-546.31714
12
25.393616
22
-6.489807
32
-546.31714
13
25.393715
23
-6.489707
33
-546.317
0
3DFACE
8
0
10
25.393616
20
-6.489807
30
-546.31714
11
120.393616
21
-6.489807
31
-546.31714
12
120.393616
22
-6.489807
32
-641.31714
13
120.393715
23
-6.489707
33
-641.317
0
3DFACE
8
0
10
120.393616
20
-6.489807
30
-641.31714
11
25.393616
21
-6.489807
31
-641.31714
12
25.393616
22
-6.489807
32
-546.31714
13
25.393715
23
-6.489707
33
-546.317
0
3DFACE
8
0
10
25.393616
20
88.51019
30
-641.31714
11
120.393616
21
88.51019
31
-641.31714
12
120.393616
22
88.51019
32
-546.31714
13
120.393715
23
88.51029
33
-546.317
0
3DFACE
8
0
10
120.393616
20
88.51019
30
-546.31714
11
25.393616
21
88.51019
31
-546.31714
12
25.393616
22
88.51019
32
-641.31714
13
25.393715
23
88.51029
33
-641.317
0
3DFACE
8
0
10
-56.39624
20
77.70868
30
-754.0971
11
-53.39624
21
77.70868
31
-754.0971
12
-53.39624
22
80.70868
32
-754.0971
13
-53.39614
23
80.70878
33
-754.097
0
3DFACE
8
0
10
-53.39624
20
80.70868
30
-754.0971
11
-56.39624
21
80.70868
31
-754.0971
12
-56.39624
22
77.70868
32
-754.0971
13
-56.39614
23
77.70878
33
-754.097
0
3DFACE
8
0
10
-53.39624
20
77.70868
30
-751.0971
11
-56.39624
21
77.70868
31
-751.0971
12
-56.39624
22
80.70868
32
-751.0971
13
-56.39614
23
80.70878
33
-751.097
0
3DFACE
8
0
10
-56.39624
20
80.70868
30
-751.0971
11
-53.39624
21
80.70868
31
-751.0971
12
-53.39624
22
77.70868
32
-751.0971
13
-53.39614
23
77.70878
33
-751.097
0
3DFACE
8
0
10
-53.39624
20
77.70868
30
-754.0971
11
-53.39624
21
77.70868
31
-751.0971
12
-53.39624
22
80.70868
32
-751.0971
13
-53.39614
23
80.70878
33
-751.097
0
3DFACE
8
0
10
-53.39624
20
80.70868
30
-751.0971
11
-53.39624
21
80.70868
31
-754.0971
12
-53.39624
22
77.70868
32
-754.0971
13
-53.39614
23
77.70878
33
-754.097
0
3DFACE
8
0
10
-56.39624
20
77.70868
30
-751.0971
11
-56.39624
21
77.70868
31
-754.0971
12
-56.39624
22
80.70868
32
-754.0971
13
-56.39614
23
80.70878
33
-754.097
0
3DFACE
8
0
10
-56.39624
20
80.70868
30
-754.0971
11
-56.39624
21
80.70868
31
-751.0971
12
-56.39624
22
77.70868
32
-751.0971
13
-56.39614
23
77.70878
33
-751.097
0
3DFACE
8
0
10
-56.39624
20
77.70868
30
-751.0971
11
-53.39624
21
77.70868
31
-751.0971
12
-53.39624
22
77.70868
32
-754.0971
13
-53.39614
23
77.70878
33
-754.097
0
3DFACE
8
0
10
-53.39624
20
77.70868
30
-754.0971
11
-56.39624
21
77.70868
31
-754.0971
12
-56.39624
22
77.70868
32
-751.0971
13
-56.39614
23
77.70878
33
-751.097
0
3DFACE
8
0
10
-56.39624
20
80.70868
30
-754.0971
11
-53.39624
21
80.70868
31
-754.0971
12
-53.39624
22
80.70868
32
-751.0971
13
-53.39614
23
80.70878
33
-751.097
0
3DFACE
8
0
10
-53.39624
20
80.70868
30
-751.0971
11
-56.39624
21
80.70868
31
-751.0971
12
-56.39624
22
80.70868
32
-754.0971
13
-56.39614
23
80.70878
33
-754.097
0
ENDSEC
0
EOF
