0
SECTION
2
ENTITIES
0
3DFACE
8
0
10
-111.133514
20
6.414196
30
-502.64938
11
-111.133514
21
133.66367
31
-572.1661
12
-32.78969
22
75.16737
32
-679.2428
13
-32.78959
23
75.16747
33
-679.2427
0
3DFACE
8
0
10
-32.78969
20
75.16737
30
-679.2428
11
-32.78969
21
-52.082092
31
-609.72614
12
-111.133514
22
6.414196
32
-502.64938
13
-111.133415
23
6.414296
33
-502.6493
0
3DFACE
8
0
10
10.879776
20
171.2237
30
-503.4129
11
10.879776
21
43.97423
31
-433.8962
12
89.2236
22
-14.522064
32
-540.97296
13
89.2237
23
-14.521964
33
-540.97284
0
3DFACE
8
0
10
89.2236
20
-14.522064
30
-540.97296
11
89.2236
21
112.7274
31
-610.4896
12
10.879776
22
171.2237
32
-503.4129
13
10.879876
23
171.2238
33
-503.4128
0
3DFACE
8
0
10
-32.78969
20
-52.082092
30
-609.72614
11
-32.78969
21
75.16737
31
-679.2428
12
89.2236
22
112.7274
32
-610.4896
13
89.2237
23
112.7275
33
-610.4895
0
3DFACE
8
0
10
89.2236
20
112.7274
30
-610.4896
11
89.2236
21
-14.522064
31
-540.97296
12
-32.78969
22
-52.082092
32
-609.72614
13
-32.78959
23
-52.081993
33
-609.726
0
3DFACE
8
0
10
-111.133514
20
133.66367
30
-572.1661
11
-111.133514
21
6.414196
31
-502.64938
12
10.879776
22
43.97423
32
-433.8962
13
10.879876
23
43.97433
33
-433.89612
0
3DFACE
8
0
10
10.879776
20
43.97423
30
-433.8962
11
10.879776
21
171.2237
31
-503.4129
12
-111.133514
22
133.66367
32
-572.1661
13
-111.133415
23
133.66377
33
-572.16595
0
3DFACE
8
0
10
-32.78969
20
-52.082092
30
-609.72614
11
89.2236
21
-14.522064
31
-540.97296
12
10.879776
22
43.97423
32
-433.8962
13
10.879876
23
43.97433
33
-433.89612
0
3DFACE
8
0
10
10.879776
20
43.97423
30
-433.8962
11
-111.133514
21
6.414196
31
-502.64938
12
-32.78969
22
-52.082092
32
-609.72614
13
-32.78959
23
-52.081993
33
-609.726
0
3DFACE
8
0
10
-111.133514
20
133.66367
30
-572.1661
11
10.879776
21
171.2237
31
-503.4129
12
89.2236
22
112.7274
32
-610.4896
13
89.2237
23
112.7275
33
-610.4895
0
3DFACE
8
0
10
89.2236
20
112.7274
30
-610.4896
11
-32.78969
21
75.16737
31
-679.2428
12
-111.133514
22
133.66367
32
-572.1661
13
-111.133415
23
133.66377
33
-572.16595
0
3DFACE
8
0
10
-195.15839
20
-139.69412
30
-541.76965
11
-195.15839
21
-22.97564
31
-605.53326
12
-123.298195
22
-76.63086
32
-703.7485
13
-123.298096
23
-76.63076
33
-703.74835
0
3DFACE
8
0
10
-123.298195
20
-76.63086
30
-703.7485
11
-123.298195
21
-193.34933
31
-639.98486
12
-195.15839
22
-139.69412
32
-541.76965
13
-195.15828
23
-139.69402
33
-541.76953
0
3DFACE
8
0
10
-83.24276
20
11.475975
30
-542.47
11
-83.24276
21
-105.24249
31
-478.7064
12
-11.382561
22
-158.8977
32
-576.9216
13
-11.382461
23
-158.8976
33
-576.92145
0
3DFACE
8
0
10
-11.382561
20
-158.8977
30
-576.9216
11
-11.382561
21
-42.179237
31
-640.6852
12
-83.24276
22
11.475975
32
-542.47
13
-83.24266
23
11.476075
33
-542.46985
0
3DFACE
8
0
10
-123.298195
20
-193.34933
30
-639.98486
11
-123.298195
21
-76.63086
31
-703.7485
12
-11.382561
22
-42.179237
32
-640.6852
13
-11.382461
23
-42.17914
33
-640.68506
0
3DFACE
8
0
10
-11.382561
20
-42.179237
30
-640.6852
11
-11.382561
21
-158.8977
31
-576.9216
12
-123.298195
22
-193.34933
32
-639.98486
13
-123.298096
23
-193.34923
33
-639.98474
0
3DFACE
8
0
10
-195.15839
20
-22.97564
30
-605.53326
11
-195.15839
21
-139.69412
31
-541.76965
12
-83.24276
22
-105.24249
32
-478.7064
13
-83.24266
23
-105.24239
33
-478.7063
0
3DFACE
8
0
10
-83.24276
20
-105.24249
30
-478.7064
11
-83.24276
21
11.475975
31
-542.47
12
-195.15839
22
-22.97564
32
-605.53326
13
-195.15828
23
-22.97554
33
-605.53314
0
3DFACE
8
0
10
-123.298195
20
-193.34933
30
-639.98486
11
-11.382561
21
-158.8977
31
-576.9216
12
-83.24276
22
-105.24249
32
-478.7064
13
-83.24266
23
-105.24239
33
-478.7063
0
3DFACE
8
0
10
-83.24276
20
-105.24249
30
-478.7064
11
-195.15839
21
-139.69412
31
-541.76965
12
-123.298195
22
-193.34933
32
-639.98486
13
-123.298096
23
-193.34923
33
-639.98474
0
3DFACE
8
0
10
-195.15839
20
-22.97564
30
-605.53326
11
-83.24276
21
11.475975
31
-542.47
12
-11.382561
22
-42.179237
32
-640.6852
13
-11.382461
23
-42.17914
33
-640.68506
0
3DFACE
8
0
10
-11.382561
20
-42.179237
30
-640.6852
11
-123.298195
21
-76.63086
31
-703.7485
12
-195.15839
22
-22.97564
32
-605.53326
13
-195.15828
23
-22.97554
33
-605.53314
0
3DFACE
8
0
10
-12.659538
20
-83.09783
30
-690.92303
11
-12.659538
21
-43.606617
31
-712.4972
12
11.654064
22
-61.760635
32
-745.7279
13
11.654164
23
-61.760536
33
-745.7278
0
3DFACE
8
0
10
11.654064
20
-61.760635
30
-745.7279
11
11.654064
21
-101.25185
31
-724.15375
12
-12.659538
22
-83.09783
32
-690.92303
13
-12.659438
23
-83.09773
33
-690.9229
0
3DFACE
8
0
10
25.206654
20
-31.950054
30
-691.16
11
25.206654
21
-71.44127
31
-669.5858
12
49.520256
22
-89.59529
32
-702.8165
13
49.520355
23
-89.59519
33
-702.8164
0
3DFACE
8
0
10
49.520256
20
-89.59529
30
-702.8165
11
49.520256
21
-50.104073
31
-724.3907
12
25.206654
22
-31.950054
32
-691.16
13
25.206753
23
-31.949955
33
-691.15985
0
3DFACE
8
0
10
11.654064
20
-101.25185
30
-724.15375
11
11.654064
21
-61.760635
31
-745.7279
12
49.520256
22
-50.104073
32
-724.3907
13
49.520355
23
-50.103973
33
-724.39056
0
3DFACE
8
0
10
49.520256
20
-50.104073
30
-724.3907
11
49.520256
21
-89.59529
31
-702.8165
12
11.654064
22
-101.25185
32
-724.15375
13
11.654164
23
-101.25175
33
-724.1536
0
3DFACE
8
0
10
-12.659538
20
-43.606617
30
-712.4972
11
-12.659538
21
-83.09783
31
-690.92303
12
25.206654
22
-71.44127
32
-669.5858
13
25.206753
23
-71.44117
33
-669.5857
0
3DFACE
8
0
10
25.206654
20
-71.44127
30
-669.5858
11
25.206654
21
-31.950054
31
-691.16
12
-12.659538
22
-43.606617
32
-712.4972
13
-12.659438
23
-43.606518
33
-712.4971
0
3DFACE
8
0
10
11.654064
20
-101.25185
30
-724.15375
11
49.520256
21
-89.59529
31
-702.8165
12
25.206654
22
-71.44127
32
-669.5858
13
25.206753
23
-71.44117
33
-669.5857
0
3DFACE
8
0
10
25.206654
20
-71.44127
30
-669.5858
11
-12.659538
21
-83.09783
31
-690.92303
12
11.654064
22
-101.25185
32
-724.15375
13
11.654164
23
-101.25175
33
-724.1536
0
3DFACE
8
0
10
-12.659538
20
-43.606617
30
-712.4972
11
25.206654
21
-31.950054
31
-691.16
12
49.520256
22
-50.104073
32
-724.3907
13
49.520355
23
-50.103973
33
-724.39056
0
3DFACE
8
0
10
49.520256
20
-50.104073
30
-724.3907
11
11.654064
21
-61.760635
31
-745.7279
12
-12.659538
22
-43.606617
32
-712.4972
13
-12.659438
23
-43.606518
33
-712.4971
0
3DFACE
8
0
10
-20.239418
20
-28.762455
30
-667.7294
11
-20.239418
21
-3.312562
31
-681.6327
12
-4.570651
22
-15.01182
32
-703.04803
13
-4.570551
23
-15.01172
33
-703.0479
0
3DFACE
8
0
10
-4.570651
20
-15.01182
30
-703.04803
11
-4.570651
21
-40.46171
31
-689.1447
12
-20.239418
22
-28.762455
32
-667.7294
13
-20.239319
23
-28.762356
33
-667.72925
0
3DFACE
8
0
10
4.1632414
20
4.199444
30
-667.882
11
4.1632414
21
-21.250448
31
-653.9787
12
19.832008
22
-32.949707
32
-675.39404
13
19.832108
23
-32.949608
33
-675.3939
0
3DFACE
8
0
10
19.832008
20
-32.949707
30
-675.39404
11
19.832008
21
-7.499813
31
-689.29736
12
4.1632414
22
4.199444
32
-667.882
13
4.1633415
23
4.199544
33
-667.8819
0
3DFACE
8
0
10
-4.570651
20
-40.46171
30
-689.1447
11
-4.570651
21
-15.01182
31
-703.04803
12
19.832008
22
-7.499813
32
-689.29736
13
19.832108
23
-7.499713
33
-689.29724
0
3DFACE
8
0
10
19.832008
20
-7.499813
30
-689.29736
11
19.832008
21
-32.949707
31
-675.39404
12
-4.570651
22
-40.46171
32
-689.1447
13
-4.570551
23
-40.461613
33
-689.1446
0
3DFACE
8
0
10
-20.239418
20
-3.312562
30
-681.6327
11
-20.239418
21
-28.762455
31
-667.7294
12
4.1632414
22
-21.250448
32
-653.9787
13
4.1633415
23
-21.250349
33
-653.9786
0
3DFACE
8
0
10
4.1632414
20
-21.250448
30
-653.9787
11
4.1632414
21
4.199444
31
-667.882
12
-20.239418
22
-3.312562
32
-681.6327
13
-20.239319
23
-3.312462
33
-681.63257
0
3DFACE
8
0
10
-4.570651
20
-40.46171
30
-689.1447
11
19.832008
21
-32.949707
31
-675.39404
12
4.1632414
22
-21.250448
32
-653.9787
13
4.1633415
23
-21.250349
33
-653.9786
0
3DFACE
8
0
10
4.1632414
20
-21.250448
30
-653.9787
11
-20.239418
21
-28.762455
31
-667.7294
12
-4.570651
22
-40.46171
32
-689.1447
13
-4.570551
23
-40.461613
33
-689.1446
0
3DFACE
8
0
10
-20.239418
20
-3.312562
30
-681.6327
11
4.1632414
21
4.199444
31
-667.882
12
19.832008
22
-7.499813
32
-689.29736
13
19.832108
23
-7.499713
33
-689.29724
0
3DFACE
8
0
10
19.832008
20
-7.499813
30
-689.29736
11
-4.570651
21
-15.01182
31
-703.04803
12
-20.239418
22
-3.312562
32
-681.6327
13
-20.239319
23
-3.312462
33
-681.63257
0
3DFACE
8
0
10
27.953491
20
-86.62915
30
-617.45294
11
27.953491
21
-86.62915
31
-617.45294
12
27.953491
22
-86.62915
32
-617.45294
13
27.95359
23
-86.62905
33
-617.4528
0
3DFACE
8
0
10
27.953491
20
-86.62915
30
-617.45294
11
27.953491
21
-86.62915
31
-617.45294
12
27.953491
22
-86.62915
32
-617.45294
13
27.95359
23
-86.62905
33
-617.4528
0
3DFACE
8
0
10
27.953491
20
-86.62915
30
-617.45294
11
27.953491
21
-86.62915
31
-617.45294
12
27.953491
22
-86.62915
32
-617.45294
13
27.95359
23
-86.62905
33
-617.4528
0
3DFACE
8
0
10
27.953491
20
-86.62915
30
-617.45294
11
27.953491
21
-86.62915
31
-617.45294
12
27.953491
22
-86.62915
32
-617.45294
13
27.95359
23
-86.62905
33
-617.4528
0
3DFACE
8
0
10
27.953491
20
-86.62915
30
-617.45294
11
27.953491
21
-86.62915
31
-617.45294
12
27.953491
22
-86.62915
32
-617.45294
13
27.95359
23
-86.62905
33
-617.4528
0
3DFACE
8
0
10
27.953491
20
-86.62915
30
-617.45294
11
27.953491
21
-86.62915
31
-617.45294
12
27.953491
22
-86.62915
32
-617.45294
13
27.95359
23
-86.62905
33
-617.4528
0
3DFACE
8
0
10
27.953491
20
-86.62915
30
-617.45294
11
27.953491
21
-86.62915
31
-617.45294
12
27.953491
22
-86.62915
32
-617.45294
13
27.95359
23
-86.62905
33
-617.4528
0
3DFACE
8
0
10
27.953491
20
-86.62915
30
-617.45294
11
27.953491
21
-86.62915
31
-617.45294
12
27.953491
22
-86.62915
32
-617.45294
13
27.95359
23
-86.62905
33
-617.4528
0
3DFACE
8
0
10
27.953491
20
-86.62915
30
-617.45294
11
27.953491
21
-86.62915
31
-617.45294
12
27.953491
22
-86.62915
32
-617.45294
13
27.95359
23
-86.62905
33
-617.4528
0
3DFACE
8
0
10
27.953491
20
-86.62915
30
-617.45294
11
27.953491
21
-86.62915
31
-617.45294
12
27.953491
22
-86.62915
32
-617.45294
13
27.95359
23
-86.62905
33
-617.4528
0
3DFACE
8
0
10
27.953491
20
-86.62915
30
-617.45294
11
27.953491
21
-86.62915
31
-617.45294
12
27.953491
22
-86.62915
32
-617.45294
13
27.95359
23
-86.62905
33
-617.4528
0
3DFACE
8
0
10
27.953491
20
-86.62915
30
-617.45294
11
27.953491
21
-86.62915
31
-617.45294
12
27.953491
22
-86.62915
32
-617.45294
13
27.95359
23
-86.62905
33
-617.4528
0
3DFACE
8
0
10
-72.92221
20
-52.106564
30
-563.18536
11
-72.92221
21
46.182686
31
-616.88104
12
-12.408356
22
0.9993391
32
-699.5886
13
-12.408256
23
0.9994391
33
-699.5885
0
3DFACE
8
0
10
-12.408356
20
0.9993391
30
-699.5886
11
-12.408356
21
-97.28991
31
-645.89294
12
-72.92221
22
-52.106564
32
-563.18536
13
-72.92211
23
-52.106464
33
-563.18524
0
3DFACE
8
0
10
21.32254
20
75.19457
30
-563.77515
11
21.32254
21
-23.094677
31
-510.07947
12
81.836395
22
-68.27802
32
-592.78705
13
81.836494
23
-68.27792
33
-592.7869
0
3DFACE
8
0
10
81.836395
20
-68.27802
30
-592.78705
11
81.836395
21
30.011227
31
-646.4827
12
21.32254
22
75.19457
32
-563.77515
13
21.32264
23
75.19467
33
-563.775
0
3DFACE
8
0
10
-12.408356
20
-97.28991
30
-645.89294
11
-12.408356
21
0.9993391
31
-699.5886
12
81.836395
22
30.011227
32
-646.4827
13
81.836494
23
30.011326
33
-646.4826
0
3DFACE
8
0
10
81.836395
20
30.011227
30
-646.4827
11
81.836395
21
-68.27802
31
-592.78705
12
-12.408356
22
-97.28991
32
-645.89294
13
-12.408256
23
-97.28981
33
-645.8928
0
3DFACE
8
0
10
-72.92221
20
46.182686
30
-616.88104
11
-72.92221
21
-52.106564
31
-563.18536
12
21.32254
22
-23.094677
32
-510.07947
13
21.32264
23
-23.094578
33
-510.07938
0
3DFACE
8
0
10
21.32254
20
-23.094677
30
-510.07947
11
21.32254
21
75.19457
31
-563.77515
12
-72.92221
22
46.182686
32
-616.88104
13
-72.92211
23
46.182785
33
-616.8809
0
3DFACE
8
0
10
-12.408356
20
-97.28991
30
-645.89294
11
81.836395
21
-68.27802
31
-592.78705
12
21.32254
22
-23.094677
32
-510.07947
13
21.32264
23
-23.094578
33
-510.07938
0
3DFACE
8
0
10
21.32254
20
-23.094677
30
-510.07947
11
-72.92221
21
-52.106564
31
-563.18536
12
-12.408356
22
-97.28991
32
-645.89294
13
-12.408256
23
-97.28981
33
-645.8928
0
3DFACE
8
0
10
-72.92221
20
46.182686
30
-616.88104
11
21.32254
21
75.19457
31
-563.77515
12
81.836395
22
30.011227
32
-646.4827
13
81.836494
23
30.011326
33
-646.4826
0
3DFACE
8
0
10
81.836395
20
30.011227
30
-646.4827
11
-12.408356
21
0.9993391
31
-699.5886
12
-72.92221
22
46.182686
32
-616.88104
13
-72.92211
23
46.182785
33
-616.8809
0
3DFACE
8
0
10
-31.485306
20
-151.02559
30
-683.18085
11
-31.485306
21
-102.758545
31
-709.54926
12
-1.7686806
22
-124.94679
32
-750.16455
13
-1.7685806
23
-124.94669
33
-750.1644
0
3DFACE
8
0
10
-1.7686806
20
-124.94679
30
-750.16455
11
-1.7686806
21
-173.21384
31
-723.79614
12
-31.485306
22
-151.02559
32
-683.18085
13
-31.485207
23
-151.02548
33
-683.1807
0
3DFACE
8
0
10
14.795597
20
-88.51163
30
-683.47046
11
14.795597
21
-136.77867
31
-657.10205
12
44.512222
22
-158.96692
32
-697.71735
13
44.51232
23
-158.96681
33
-697.7172
0
3DFACE
8
0
10
44.512222
20
-158.96692
30
-697.71735
11
44.512222
21
-110.69988
31
-724.08575
12
14.795597
22
-88.51163
32
-683.47046
13
14.795697
23
-88.51153
33
-683.47034
0
3DFACE
8
0
10
-1.7686806
20
-173.21384
30
-723.79614
11
-1.7686806
21
-124.94679
31
-750.16455
12
44.512222
22
-110.69988
32
-724.08575
13
44.51232
23
-110.69978
33
-724.08563
0
3DFACE
8
0
10
44.512222
20
-110.69988
30
-724.08575
11
44.512222
21
-158.96692
31
-697.71735
12
-1.7686806
22
-173.21384
32
-723.79614
13
-1.7685806
23
-173.21373
33
-723.796
0
3DFACE
8
0
10
-31.485306
20
-102.758545
30
-709.54926
11
-31.485306
21
-151.02559
31
-683.18085
12
14.795597
22
-136.77867
32
-657.10205
13
14.795697
23
-136.77856
33
-657.1019
0
3DFACE
8
0
10
14.795597
20
-136.77867
30
-657.10205
11
14.795597
21
-88.51163
31
-683.47046
12
-31.485306
22
-102.758545
32
-709.54926
13
-31.485207
23
-102.758446
33
-709.54913
0
3DFACE
8
0
10
-1.7686806
20
-173.21384
30
-723.79614
11
44.512222
21
-158.96692
31
-697.71735
12
14.795597
22
-136.77867
32
-657.10205
13
14.795697
23
-136.77856
33
-657.1019
0
3DFACE
8
0
10
14.795597
20
-136.77867
30
-657.10205
11
-31.485306
21
-151.02559
31
-683.18085
12
-1.7686806
22
-173.21384
32
-723.79614
13
-1.7685806
23
-173.21373
33
-723.796
0
3DFACE
8
0
10
-31.485306
20
-102.758545
30
-709.54926
11
14.795597
21
-88.51163
31
-683.47046
12
44.512222
22
-110.69988
32
-724.08575
13
44.51232
23
-110.69978
33
-724.08563
0
3DFACE
8
0
10
44.512222
20
-110.69988
30
-724.08575
11
-1.7686806
21
-124.94679
31
-750.16455
12
-31.485306
22
-102.758545
32
-709.54926
13
-31.485207
23
-102.758446
33
-709.54913
0
3DFACE
8
0
10
-76.89096
20
-17.280575
30
-515.22095
11
-76.89096
21
81.008675
31
-568.9166
12
-16.377106
22
35.82533
32
-651.6242
13
-16.377007
23
35.825428
33
-651.6241
0
3DFACE
8
0
10
-16.377106
20
35.82533
30
-651.6242
11
-16.377106
21
-62.46392
31
-597.9285
12
-76.89096
22
-17.280575
32
-515.22095
13
-76.89086
23
-17.280476
33
-515.2208
0
3DFACE
8
0
10
17.35379
20
110.02056
30
-515.8107
11
17.35379
21
11.731313
31
-462.11505
12
77.867645
22
-33.452034
32
-544.82263
13
77.867744
23
-33.451935
33
-544.8225
0
3DFACE
8
0
10
77.867645
20
-33.452034
30
-544.82263
11
77.867645
21
64.83722
31
-598.5183
12
17.35379
22
110.02056
32
-515.8107
13
17.35389
23
110.02066
33
-515.8106
0
3DFACE
8
0
10
-16.377106
20
-62.46392
30
-597.9285
11
-16.377106
21
35.82533
31
-651.6242
12
77.867645
22
64.83722
32
-598.5183
13
77.867744
23
64.83732
33
-598.5182
0
3DFACE
8
0
10
77.867645
20
64.83722
30
-598.5183
11
77.867645
21
-33.452034
31
-544.82263
12
-16.377106
22
-62.46392
32
-597.9285
13
-16.377007
23
-62.46382
33
-597.9284
0
3DFACE
8
0
10
-76.89096
20
81.008675
30
-568.9166
11
-76.89096
21
-17.280575
31
-515.22095
12
17.35379
22
11.731313
32
-462.11505
13
17.35389
23
11.731413
33
-462.11496
0
3DFACE
8
0
10
17.35379
20
11.731313
30
-462.11505
11
17.35379
21
110.02056
31
-515.8107
12
-76.89096
22
81.008675
32
-568.9166
13
-76.89086
23
81.00877
33
-568.9165
0
3DFACE
8
0
10
-16.377106
20
-62.46392
30
-597.9285
11
77.867645
21
-33.452034
31
-544.82263
12
17.35379
22
11.731313
32
-462.11505
13
17.35389
23
11.731413
33
-462.11496
0
3DFACE
8
0
10
17.35379
20
11.731313
30
-462.11505
11
-76.89096
21
-17.280575
31
-515.22095
12
-16.377106
22
-62.46392
32
-597.9285
13
-16.377007
23
-62.46382
33
-597.9284
0
3DFACE
8
0
10
-76.89096
20
81.008675
30
-568.9166
11
17.35379
21
110.02056
31
-515.8107
12
77.867645
22
64.83722
32
-598.5183
13
77.867744
23
64.83732
33
-598.5182
0
3DFACE
8
0
10
77.867645
20
64.83722
30
-598.5183
11
-16.377106
21
35.82533
31
-651.6242
12
-76.89096
22
81.008675
32
-568.9166
13
-76.89086
23
81.00877
33
-568.9165
0
3DFACE
8
0
10
-99.265945
20
-129.22557
30
-556.1125
11
-99.265945
21
-80.95853
31
-582.4809
12
-69.54932
22
-103.146774
32
-623.0962
13
-69.54922
23
-103.146675
33
-623.09607
0
3DFACE
8
0
10
-69.54932
20
-103.146774
30
-623.0962
11
-69.54932
21
-151.41382
31
-596.7278
12
-99.265945
22
-129.22557
32
-556.1125
13
-99.26585
23
-129.22546
33
-556.11237
0
3DFACE
8
0
10
-52.985043
20
-66.71161
30
-556.4021
11
-52.985043
21
-114.97865
31
-530.0337
12
-23.268417
22
-137.1669
32
-570.649
13
-23.268318
23
-137.1668
33
-570.64886
0
3DFACE
8
0
10
-23.268417
20
-137.1669
30
-570.649
11
-23.268417
21
-88.899864
31
-597.0174
12
-52.985043
22
-66.71161
32
-556.4021
13
-52.984943
23
-66.71151
33
-556.402
0
3DFACE
8
0
10
-69.54932
20
-151.41382
30
-596.7278
11
-69.54932
21
-103.146774
31
-623.0962
12
-23.268417
22
-88.899864
32
-597.0174
13
-23.268318
23
-88.899765
33
-597.0173
0
3DFACE
8
0
10
-23.268417
20
-88.899864
30
-597.0174
11
-23.268417
21
-137.1669
31
-570.649
12
-69.54932
22
-151.41382
32
-596.7278
13
-69.54922
23
-151.41371
33
-596.72766
0
3DFACE
8
0
10
-99.265945
20
-80.95853
30
-582.4809
11
-99.265945
21
-129.22557
31
-556.1125
12
-52.985043
22
-114.97865
32
-530.0337
13
-52.984943
23
-114.97855
33
-530.03357
0
3DFACE
8
0
10
-52.985043
20
-114.97865
30
-530.0337
11
-52.985043
21
-66.71161
31
-556.4021
12
-99.265945
22
-80.95853
32
-582.4809
13
-99.26585
23
-80.95843
33
-582.4808
0
3DFACE
8
0
10
-69.54932
20
-151.41382
30
-596.7278
11
-23.268417
21
-137.1669
31
-570.649
12
-52.985043
22
-114.97865
32
-530.0337
13
-52.984943
23
-114.97855
33
-530.03357
0
3DFACE
8
0
10
-52.985043
20
-114.97865
30
-530.0337
11
-99.265945
21
-129.22557
31
-556.1125
12
-69.54932
22
-151.41382
32
-596.7278
13
-69.54922
23
-151.41371
33
-596.72766
0
3DFACE
8
0
10
-99.265945
20
-80.95853
30
-582.4809
11
-52.985043
21
-66.71161
31
-556.4021
12
-23.268417
22
-88.899864
32
-597.0174
13
-23.268318
23
-88.899765
33
-597.0173
0
3DFACE
8
0
10
-23.268417
20
-88.899864
30
-597.0174
11
-69.54932
21
-103.146774
31
-623.0962
12
-99.265945
22
-80.95853
32
-582.4809
13
-99.26585
23
-80.95843
33
-582.4808
0
3DFACE
8
0
10
-57.506485
20
-85.18806
30
-657.6282
11
-57.506485
21
-3.5728836
31
-702.2147
12
-7.2583714
22
-41.091194
32
-770.89154
13
-7.258271
23
-41.091095
33
-770.8914
0
3DFACE
8
0
10
-7.2583714
20
-41.091194
30
-770.89154
11
-7.2583714
21
-122.70637
31
-726.305
12
-57.506485
22
-85.18806
32
-657.6282
13
-57.506386
23
-85.18796
33
-657.62805
0
3DFACE
8
0
10
20.750315
20
20.517342
30
-658.11786
11
20.750315
21
-61.09783
31
-613.5313
12
70.99843
22
-98.61614
32
-682.2081
13
70.99853
23
-98.61604
33
-682.208
0
3DFACE
8
0
10
70.99843
20
-98.61614
30
-682.2081
11
70.99843
21
-17.000969
31
-726.7947
12
20.750315
22
20.517342
32
-658.11786
13
20.750414
23
20.51744
33
-658.11774
0
3DFACE
8
0
10
-7.2583714
20
-122.70637
30
-726.305
11
-7.2583714
21
-41.091194
31
-770.89154
12
70.99843
22
-17.000969
32
-726.7947
13
70.99853
23
-17.00087
33
-726.79456
0
3DFACE
8
0
10
70.99843
20
-17.000969
30
-726.7947
11
70.99843
21
-98.61614
31
-682.2081
12
-7.2583714
22
-122.70637
32
-726.305
13
-7.258271
23
-122.70627
33
-726.3049
0
3DFACE
8
0
10
-57.506485
20
-3.5728836
30
-702.2147
11
-57.506485
21
-85.18806
31
-657.6282
12
20.750315
22
-61.09783
32
-613.5313
13
20.750414
23
-61.097733
33
-613.5312
0
3DFACE
8
0
10
20.750315
20
-61.09783
30
-613.5313
11
20.750315
21
20.517342
31
-658.11786
12
-57.506485
22
-3.5728836
32
-702.2147
13
-57.506386
23
-3.5727837
33
-702.2146
0
3DFACE
8
0
10
-7.2583714
20
-122.70637
30
-726.305
11
70.99843
21
-98.61614
31
-682.2081
12
20.750315
22
-61.09783
32
-613.5313
13
20.750414
23
-61.097733
33
-613.5312
0
3DFACE
8
0
10
20.750315
20
-61.09783
30
-613.5313
11
-57.506485
21
-85.18806
31
-657.6282
12
-7.2583714
22
-122.70637
32
-726.305
13
-7.258271
23
-122.70627
33
-726.3049
0
3DFACE
8
0
10
-57.506485
20
-3.5728836
30
-702.2147
11
20.750315
21
20.517342
31
-658.11786
12
70.99843
22
-17.000969
32
-726.7947
13
70.99853
23
-17.00087
33
-726.79456
0
3DFACE
8
0
10
70.99843
20
-17.000969
30
-726.7947
11
-7.2583714
21
-41.091194
31
-770.89154
12
-57.506485
22
-3.5728836
32
-702.2147
13
-57.506386
23
-3.5727837
33
-702.2146
0
3DFACE
8
0
10
16.677364
20
17.477331
30
-670.419
11
16.677364
21
46.437553
31
-686.24005
12
34.50734
22
33.124607
32
-710.60925
13
34.50744
23
33.124706
33
-710.60913
0
3DFACE
8
0
10
34.50734
20
33.124607
30
-710.60925
11
34.50734
21
4.164385
31
-694.7882
12
16.677364
22
17.477331
32
-670.419
13
16.677464
23
17.47743
33
-670.4189
0
3DFACE
8
0
10
44.445908
20
54.985703
30
-670.5928
11
44.445908
21
26.025478
31
-654.7717
12
62.275883
22
12.71253
32
-679.1409
13
62.27598
23
12.71263
33
-679.1408
0
3DFACE
8
0
10
62.275883
20
12.71253
30
-679.1409
11
62.275883
21
41.672752
31
-694.962
12
44.445908
22
54.985703
32
-670.5928
13
44.446007
23
54.9858
33
-670.59265
0
3DFACE
8
0
10
34.50734
20
4.164385
30
-694.7882
11
34.50734
21
33.124607
31
-710.60925
12
62.275883
22
41.672752
32
-694.962
13
62.27598
23
41.67285
33
-694.96185
0
3DFACE
8
0
10
62.275883
20
41.672752
30
-694.962
11
62.275883
21
12.71253
31
-679.1409
12
34.50734
22
4.164385
32
-694.7882
13
34.50744
23
4.164485
33
-694.7881
0
3DFACE
8
0
10
16.677364
20
46.437553
30
-686.24005
11
16.677364
21
17.477331
31
-670.419
12
44.445908
22
26.025478
32
-654.7717
13
44.446007
23
26.025578
33
-654.7716
0
3DFACE
8
0
10
44.445908
20
26.025478
30
-654.7717
11
44.445908
21
54.985703
31
-670.5928
12
16.677364
22
46.437553
32
-686.24005
13
16.677464
23
46.437653
33
-686.2399
0
3DFACE
8
0
10
34.50734
20
4.164385
30
-694.7882
11
62.275883
21
12.71253
31
-679.1409
12
44.445908
22
26.025478
32
-654.7717
13
44.446007
23
26.025578
33
-654.7716
0
3DFACE
8
0
10
44.445908
20
26.025478
30
-654.7717
11
16.677364
21
17.477331
31
-670.419
12
34.50734
22
4.164385
32
-694.7882
13
34.50744
23
4.164485
33
-694.7881
0
3DFACE
8
0
10
16.677364
20
46.437553
30
-686.24005
11
44.445908
21
54.985703
31
-670.5928
12
62.275883
22
41.672752
32
-694.962
13
62.27598
23
41.67285
33
-694.96185
0
3DFACE
8
0
10
62.275883
20
41.672752
30
-694.962
11
34.50734
21
33.124607
31
-710.60925
12
16.677364
22
46.437553
32
-686.24005
13
16.677464
23
46.437653
33
-686.2399
0
3DFACE
8
0
10
-90.341324
20
-140.58151
30
-502.6197
11
-90.341324
21
-57.211163
31
-548.1651
12
-39.012604
22
-95.536316
32
-618.31885
13
-39.012505
23
-95.53622
33
-618.3187
0
3DFACE
8
0
10
-39.012604
20
-95.536316
30
-618.31885
11
-39.012604
21
-178.90666
31
-572.7734
12
-90.341324
22
-140.58151
32
-502.6197
13
-90.341225
23
-140.5814
33
-502.6196
0
3DFACE
8
0
10
-10.401579
20
-32.60286
30
-503.1199
11
-10.401579
21
-115.973206
31
-457.5745
12
40.92714
22
-154.29836
32
-527.7282
13
40.92724
23
-154.29825
33
-527.7281
0
3DFACE
8
0
10
40.92714
20
-154.29836
30
-527.7282
11
40.92714
21
-70.92802
31
-573.2736
12
-10.401579
22
-32.60286
32
-503.1199
13
-10.401479
23
-32.60276
33
-503.1198
0
3DFACE
8
0
10
-39.012604
20
-178.90666
30
-572.7734
11
-39.012604
21
-95.536316
31
-618.31885
12
40.92714
22
-70.92802
32
-573.2736
13
40.92724
23
-70.92792
33
-573.2735
0
3DFACE
8
0
10
40.92714
20
-70.92802
30
-573.2736
11
40.92714
21
-154.29836
31
-527.7282
12
-39.012604
22
-178.90666
32
-572.7734
13
-39.012505
23
-178.90656
33
-572.77325
0
3DFACE
8
0
10
-90.341324
20
-57.211163
30
-548.1651
11
-90.341324
21
-140.58151
31
-502.6197
12
-10.401579
22
-115.973206
32
-457.5745
13
-10.401479
23
-115.97311
33
-457.5744
0
3DFACE
8
0
10
-10.401579
20
-115.973206
30
-457.5745
11
-10.401579
21
-32.60286
31
-503.1199
12
-90.341324
22
-57.211163
32
-548.1651
13
-90.341225
23
-57.211063
33
-548.165
0
3DFACE
8
0
10
-39.012604
20
-178.90666
30
-572.7734
11
40.92714
21
-154.29836
31
-527.7282
12
-10.401579
22
-115.973206
32
-457.5745
13
-10.401479
23
-115.97311
33
-457.5744
0
3DFACE
8
0
10
-10.401579
20
-115.973206
30
-457.5745
11
-90.341324
21
-140.58151
31
-502.6197
12
-39.012604
22
-178.90666
32
-572.7734
13
-39.012505
23
-178.90656
33
-572.77325
0
3DFACE
8
0
10
-90.341324
20
-57.211163
30
-548.1651
11
-10.401579
21
-32.60286
31
-503.1199
12
40.92714
22
-70.92802
32
-573.2736
13
40.92724
23
-70.92792
33
-573.2735
0
3DFACE
8
0
10
40.92714
20
-70.92802
30
-573.2736
11
-39.012604
21
-95.536316
31
-618.31885
12
-90.341324
22
-57.211163
32
-548.1651
13
-90.341225
23
-57.211063
33
-548.165
0
3DFACE
8
0
10
-36.724392
20
1.9762579
30
-603.82825
11
-36.724392
21
4.6090055
31
-605.26654
12
-35.103485
22
3.3987374
32
-607.48193
13
-35.103386
23
3.3988373
33
-607.4818
0
3DFACE
8
0
10
-35.103485
20
3.3987374
30
-607.48193
11
-35.103485
21
0.7659898
31
-606.04364
12
-36.724392
22
1.9762579
32
-603.82825
13
-36.724293
23
1.9763579
33
-603.8281
0
3DFACE
8
0
10
-34.19998
20
5.38611
30
-603.84406
11
-34.19998
21
2.7533622
31
-602.40576
12
-32.579075
22
1.543094
32
-604.62115
13
-32.578976
23
1.543194
33
-604.62103
0
3DFACE
8
0
10
-32.579075
20
1.543094
30
-604.62115
11
-32.579075
21
4.175842
31
-606.05945
12
-34.19998
22
5.38611
32
-603.84406
13
-34.199883
23
5.38621
33
-603.84393
0
3DFACE
8
0
10
-35.103485
20
0.7659898
30
-606.04364
11
-35.103485
21
3.3987374
31
-607.48193
12
-32.579075
22
4.175842
32
-606.05945
13
-32.578976
23
4.175942
33
-606.0593
0
3DFACE
8
0
10
-32.579075
20
4.175842
30
-606.05945
11
-32.579075
21
1.543094
31
-604.62115
12
-35.103485
22
0.7659898
32
-606.04364
13
-35.103386
23
0.7660898
33
-606.0435
0
3DFACE
8
0
10
-36.724392
20
4.6090055
30
-605.26654
11
-36.724392
21
1.9762579
31
-603.82825
12
-34.19998
22
2.7533622
32
-602.40576
13
-34.199883
23
2.753462
33
-602.40564
0
3DFACE
8
0
10
-34.19998
20
2.7533622
30
-602.40576
11
-34.19998
21
5.38611
31
-603.84406
12
-36.724392
22
4.6090055
32
-605.26654
13
-36.724293
23
4.6091056
33
-605.2664
0
3DFACE
8
0
10
-35.103485
20
0.7659898
30
-606.04364
11
-32.579075
21
1.543094
31
-604.62115
12
-34.19998
22
2.7533622
32
-602.40576
13
-34.199883
23
2.753462
33
-602.40564
0
3DFACE
8
0
10
-34.19998
20
2.7533622
30
-602.40576
11
-36.724392
21
1.9762579
31
-603.82825
12
-35.103485
22
0.7659898
32
-606.04364
13
-35.103386
23
0.7660898
33
-606.0435
0
3DFACE
8
0
10
-36.724392
20
4.6090055
30
-605.26654
11
-34.19998
21
5.38611
31
-603.84406
12
-32.579075
22
4.175842
32
-606.05945
13
-32.578976
23
4.175942
33
-606.0593
0
3DFACE
8
0
10
-32.579075
20
4.175842
30
-606.05945
11
-35.103485
21
3.3987374
31
-607.48193
12
-36.724392
22
4.6090055
32
-605.26654
13
-36.724293
23
4.6091056
33
-605.2664
0
ENDSEC
0
EOF
